<?xml version="1.0" encoding="utf-8"?>
<!-- Generator: Adobe Illustrator 26.3.1, SVG Export Plug-In . SVG Version: 6.00 Build 0)  -->
<svg version="1.1" id="Layer_1" xmlns="http://www.w3.org/2000/svg" xmlns:xlink="http://www.w3.org/1999/xlink" x="0px" y="0px"
	 viewBox="0 0 128 128" style="enable-background:new 0 0 128 128;" xml:space="preserve">
<path style="fill:#3C2C23;" d="M34.66,16.33c-16.3,0-16.17,15.11-16.17,15.35c0,9.79,0.75,23.62,4.65,29.06
	c1.55,2.16,4.54,2.28,4.54,2.28L34.43,63l6.74,0.01c0,0,2.99-0.12,4.54-2.28c3.91-5.44,4.65-19.27,4.65-29.06
	C50.37,31.44,50.96,16.33,34.66,16.33z"/>
<path style="fill:#7A4C32;" d="M20.11,75.4l2.33-2.38c0.17-0.12,1.1-0.14,1.29-0.08c0.06,0,0.45,0.69,0.51,0.7l0.9,0.16
	c0.38,0.09,0.63,0.48,0.54,0.87l-0.04,0.21c-0.08,0.39-0.46,0.64-0.84,0.55l-1.37-0.32l-2.38,1.68c-0.32,0.23-0.76,0.14-0.99-0.19
	l-0.12-0.18C19.71,76.07,19.79,75.62,20.11,75.4z"/>
<path style="fill:#504F4F;" d="M64.99,113.17c-0.56-2.43-3.24-5.12-5.87-7.72c-1.7-1.68-4.76-1.33-6.43,0.38
	c-1.67,1.71-1.97,4.78-0.27,6.46c2.63,2.6,5.36,5.24,7.79,5.76c1.91,0.41,3.5-0.2,4.07-0.78C64.85,116.68,65.43,115.08,64.99,113.17
	z"/>
<linearGradient id="SVGID_1_" gradientUnits="userSpaceOnUse" x1="30.5655" y1="25.291" x2="31.3097" y2="14.222" gradientTransform="matrix(1 0 0 -1 0 130)">
	<stop  offset="0" style="stop-color:#8D5738"/>
	<stop  offset="0.4" style="stop-color:#A56C43"/>
</linearGradient>
<path style="fill:url(#SVGID_1_);" d="M35.45,123.82h-6.06l-3.28-19.28c0.65,1.7,2.3,2.91,4.24,2.91c2.5,0,4.53-2.02,4.54-4.51
	L35.45,123.82z"/>
<linearGradient id="SVGID_00000018939045638742716450000017352703302360613046_" gradientUnits="userSpaceOnUse" x1="52.0379" y1="32.4325" x2="53.1555" y2="15.8083" gradientTransform="matrix(1 0 0 -1 0 130)">
	<stop  offset="0" style="stop-color:#8D5738"/>
	<stop  offset="0.4" style="stop-color:#A56C43"/>
</linearGradient>
<path style="fill:url(#SVGID_00000018939045638742716450000017352703302360613046_);" d="M59.71,113.47c-1,0.56-2.24,0.49-3.17-0.19
	l-12.15-10.64c-0.11-0.1-0.22-0.2-0.32-0.31c0.84,0.83,1.99,1.35,3.27,1.35c2.57,0,4.65-2.08,4.65-4.65c0-0.5-0.08-0.99-0.23-1.44
	c0.01,0.01,0.02,0.03,0.03,0.04l8.55,11.16C61.73,110.17,61.42,112.51,59.71,113.47z"/>
<linearGradient id="SVGID_00000116209185579286490090000016031708689945483663_" gradientUnits="userSpaceOnUse" x1="34.8678" y1="39.5825" x2="40.3562" y2="27.21" gradientTransform="matrix(1 0 0 -1 0 130)">
	<stop  offset="0" style="stop-color:#8D5738"/>
	<stop  offset="0.4" style="stop-color:#A56C43"/>
</linearGradient>
<path style="fill:url(#SVGID_00000116209185579286490090000016031708689945483663_);" d="M51.99,99.03c0,2.57-2.08,4.65-4.65,4.65
	c-1.28,0-2.43-0.52-3.27-1.35c-0.13-0.13-0.25-0.26-0.36-0.4c-0.21-0.25-0.4-0.53-0.56-0.81l-6.83-12.65
	c-0.04-0.22-1.21-0.37-1.41-0.37s-0.37,0.16-0.41,0.37l0.39,14.34v0.13c-0.01,2.49-2.04,4.51-4.54,4.51c-1.94,0-3.59-1.21-4.24-2.91
	l-0.29-1.76l-3.43-20.16l11.34-8.03l12.7,8.02l4.67,13.7l0.1,0.29c0.14,0.35,0.32,0.69,0.56,0.99
	C51.91,98.04,51.99,98.53,51.99,99.03z"/>
<path style="fill:#7A4C32;" d="M49.04,75.14l-2.64-2.22c-0.17-0.12-0.72,0.24-0.91,0.29c-0.06,0-0.52,0.15-0.58,0.16l-0.9,0.16
	c-0.38,0.09-0.63,0.48-0.54,0.87l0.04,0.21c0.08,0.39,0.46,0.64,0.84,0.55l1.37-0.32l2.38,1.68c0.32,0.23,0.76,0.14,0.99-0.19
	l0.12-0.18C49.44,75.82,49.36,75.37,49.04,75.14z"/>
<path style="fill:#444444;" d="M52.92,60.34c0,0-2.07-7.41-19.04-7.41s-17.96,7.41-17.96,7.41l6.35,4.83h23.25L52.92,60.34z"/>
<linearGradient id="SVGID_00000089557935142662654360000005115495814125970085_" gradientUnits="userSpaceOnUse" x1="34.3901" y1="66.5149" x2="34.3901" y2="42.1134" gradientTransform="matrix(1 0 0 -1 0 130)">
	<stop  offset="0" style="stop-color:#515151"/>
	<stop  offset="0.9439" style="stop-color:#313131"/>
</linearGradient>
<path style="fill:url(#SVGID_00000089557935142662654360000005115495814125970085_);" d="M53.89,60.34c0,0-3.07-7.41-20.04-7.41
	s-18.96,7.41-18.96,7.41l7.42,6.89v15.42l9.74,6.43c0.77,0.39,1.62,0.59,2.48,0.59c0.89,0,1.77-0.22,2.56-0.63l9.31-6.39V67.23
	L53.89,60.34z"/>
<linearGradient id="SVGID_00000103232232289112392420000016354660635866171551_" gradientUnits="userSpaceOnUse" x1="44.3347" y1="63.9258" x2="54.0091" y2="52.577" gradientTransform="matrix(1 0 0 -1 0 130)">
	<stop  offset="0" style="stop-color:#8D5738"/>
	<stop  offset="0.4" style="stop-color:#A56C43"/>
</linearGradient>
<path style="fill:url(#SVGID_00000103232232289112392420000016354660635866171551_);" d="M59.86,69.01l-7.39-9.77l-6.18,4.36
	l7.42,6.95l-5.19,4.31c-0.54-0.02-1.47-0.16-2.66-0.16h-0.39l-0.02-0.01c0,0-1.67,0.12-2.11,0.46c-0.4,0.31-0.36,0.85-0.18,1.05
	c0.21,0.24,0.16,0.66-0.05,0.89c-0.21,0.24-0.34,0.53-0.32,0.83c0.02,0.29,0.15,0.46,0.44,0.68c0.14,0.1,0.21,0.38,0.14,0.53
	c-0.12,0.24-0.31,0.65-0.27,0.87c0.09,0.43,0.53,0.52,0.63,0.85c0.04,0.13-0.37,0.57,0.05,0.94c0.39,0.35,1.06,0.63,2.08,0.63
	c0.91,0,2.1-0.22,3.61-0.82c0.04-0.02,10.39-8.44,10.39-8.44C60.91,72.05,60.86,70.17,59.86,69.01z"/>
<linearGradient id="SVGID_00000009567692113519089890000002766251914978304158_" gradientUnits="userSpaceOnUse" x1="24.8779" y1="63.3221" x2="14.4606" y2="52.9048" gradientTransform="matrix(1 0 0 -1 0 130)">
	<stop  offset="0" style="stop-color:#8D5738"/>
	<stop  offset="0.4" style="stop-color:#A56C43"/>
</linearGradient>
<path style="fill:url(#SVGID_00000009567692113519089890000002766251914978304158_);" d="M26.37,77.94c0.02-0.3-0.11-0.59-0.32-0.83
	c-0.21-0.24-0.26-0.66-0.05-0.89c0.18-0.2,0.21-0.75-0.18-1.05c-0.44-0.34-2.11-0.46-2.11-0.46l-0.02,0.01H23.3
	c-1.19,0-2.12,0.13-2.66,0.16l-5.19-4.31l7.42-6.95l-6.19-4.38L9.3,69.03c-1,1.15-1.05,3.04,0,4.15c0,0,10.35,8.42,10.39,8.44
	c1.51,0.59,2.7,0.82,3.61,0.82c1.01,0,1.69-0.28,2.08-0.63c0.42-0.38,0.01-0.81,0.05-0.94c0.1-0.33,0.53-0.42,0.63-0.85
	c0.05-0.21-0.15-0.63-0.27-0.87c-0.08-0.15,0-0.43,0.14-0.53C26.22,78.4,26.35,78.23,26.37,77.94z"/>
<linearGradient id="SVGID_00000052814014104504255450000007036953364213435064_" gradientUnits="userSpaceOnUse" x1="34.4202" y1="66.5149" x2="34.4202" y2="42.1135" gradientTransform="matrix(1 0 0 -1 0 130)">
	<stop  offset="0" style="stop-color:#515151"/>
	<stop  offset="0.9439" style="stop-color:#313131"/>
</linearGradient>
<path style="fill:url(#SVGID_00000052814014104504255450000007036953364213435064_);" d="M53.92,60.34c0,0-3.07-7.41-20.04-7.41
	s-18.96,7.41-18.96,7.41l7.35,6.83h24.25L53.92,60.34z"/>
<path style="fill:#A56C43;" d="M44.91,54.35c-0.09,3-3.82,7.22-10.5,7.22c-6.76,0-10.5-4.33-10.5-7.33c0-0.05,0-0.1,0.01-0.15
	c2.48-0.7,5.72-1.16,9.96-1.16C38.63,52.93,42.22,53.51,44.91,54.35z"/>
<path style="fill:#504F4F;" d="M32.14,124h-4.38c-0.81-0.02-1.39-0.95-1.15-1.75c0.73-2.46,2.95-4.27,5.53-4.27
	c2.64,0,4.89,1.88,5.57,4.41c0.22,0.81-0.38,1.61-1.19,1.61H32.14z"/>
<path style="fill:#7A4C32;" d="M33.96,57.3c-1.97,0-3.57-1.52-3.57-3.4v-4.26h7.96v4.26c0,1.87-1.6,3.4-3.57,3.4H33.96z"/>
<path style="fill:#A56C43;" d="M34.45,20.27c-6.84,0-13.17,5.1-13.17,15.91c0,8.68,5.36,13.82,10.03,15.48
	c1.11,0.39,2.19,0.59,3.14,0.59c0.95,0,2.01-0.2,3.12-0.59c4.67-1.65,10.05-6.79,10.05-15.48C47.62,25.37,41.29,20.27,34.45,20.27z"
	/>
<path style="fill:#42312C;" d="M28.06,40.03c1.07,0,1.93-0.9,1.93-2.01s-0.86-2.01-1.93-2.01c-1.07,0-1.93,0.9-1.93,2.01
	S26.99,40.03,28.06,40.03z"/>
<path style="fill:#42312C;" d="M40.97,40.03c1.07,0,1.93-0.9,1.93-2.01s-0.86-2.01-1.93-2.01c-1.07,0-1.93,0.9-1.93,2.01
	S39.9,40.03,40.97,40.03z"/>
<path style="fill:#875334;" d="M35.93,41.67c-0.04-0.02-0.08-0.03-0.13-0.03h-2.78c-0.04,0.01-0.08,0.02-0.13,0.03
	c-0.25,0.1-0.39,0.36-0.27,0.64s0.67,1.06,1.79,1.06c1.11,0,1.67-0.78,1.79-1.06C36.32,42.04,36.18,41.78,35.93,41.67z"/>
<path style="fill:#42312C;" d="M30.93,34.41c-0.37-0.49-1.22-1.2-2.87-1.2c-1.65,0-2.51,0.71-2.87,1.2
	c-0.16,0.22-0.12,0.47-0.01,0.62c0.1,0.14,0.41,0.27,0.76,0.15c0.34-0.12,1.01-0.46,2.13-0.47c1.12,0.01,1.79,0.35,2.13,0.47
	s0.65-0.01,0.76-0.15C31.06,34.87,31.1,34.62,30.93,34.41z"/>
<path style="fill:#42312C;" d="M43.85,34.41c-0.37-0.49-1.22-1.2-2.87-1.2c-1.65,0-2.51,0.71-2.87,1.2
	c-0.16,0.22-0.12,0.47-0.01,0.62c0.1,0.14,0.41,0.27,0.76,0.15c0.34-0.12,1.01-0.46,2.13-0.47c1.12,0.01,1.79,0.35,2.13,0.47
	s0.65-0.01,0.76-0.15C43.97,34.87,44.01,34.62,43.85,34.41z"/>
<path style="fill:#3C2C23;" d="M34.62,16.33c-16.34,0-16.21,15.11-16.21,15.35c0,7.3,0.42,16.85,2.26,23.49
	c0.6-0.27,1.26-0.52,1.98-0.75c0.26-0.09,0.53-0.17,0.81-0.25c-0.15-2.04-0.79-10.82-0.87-15.24c-0.02-1.17-0.37-5.52,2.05-6.07
	c8.89-2.02,13.91-6.79,13.91-6.79c1.31,2.89,5.4,5.71,6.86,6.78c1.21,0.88,1.04,4.49,1.01,6.04l-1.19,15.49
	c0.16,0.05,0.32,0.1,0.48,0.15c0.86,0.28,1.63,0.59,2.33,0.9c1.91-6.65,2.33-16.35,2.33-23.75C50.37,31.44,50.96,16.33,34.62,16.33z
	"/>
<path style="fill:#473530;" d="M37.72,45.08c-1.25,0.75-5.35,0.75-6.6,0c-0.72-0.43-1.45,0.23-1.15,0.88
	c0.29,0.64,2.53,2.14,4.46,2.14c1.93,0,4.14-1.49,4.44-2.14C39.17,45.3,38.44,44.65,37.72,45.08z"/>
<radialGradient id="SVGID_00000093888027678455385290000018424664987208693171_" cx="-842.2142" cy="584.3563" r="1" gradientTransform="matrix(16.9553 0 0 -23.0095 14314.4688 13485.1621)" gradientUnits="userSpaceOnUse">
	<stop  offset="0.7945" style="stop-color:#554138;stop-opacity:0"/>
	<stop  offset="1" style="stop-color:#554138"/>
</radialGradient>
<path style="fill:url(#SVGID_00000093888027678455385290000018424664987208693171_);" d="M50.38,31.66c0,7.41-0.43,17.12-2.34,23.77
	c-3.03-1.39-7.54-2.52-14.18-2.52c-6.17,0-10.36,0.98-13.19,2.22c-1.83-6.64-2.25-16.17-2.25-23.47c0-0.24-0.13-15.35,16.21-15.35
	S50.38,31.42,50.38,31.66z"/>
<linearGradient id="SVGID_00000066500343539548931730000011623334320518261152_" gradientUnits="userSpaceOnUse" x1="34.3714" y1="119.7312" x2="34.3714" y2="103.452" gradientTransform="matrix(1 0 0 -1 0 130)">
	<stop  offset="0" style="stop-color:#504F4F"/>
	<stop  offset="1" style="stop-color:#212121"/>
</linearGradient>
<path style="fill:url(#SVGID_00000066500343539548931730000011623334320518261152_);" d="M49.95,5.34c-0.17-1-1.2-1.59-2.14-1.24
	c-2.22,0.82-5.98,2.63-7.88,5.93c-1.43,2.48-2.03,6.16-2.27,9.18c-0.09,1.1-1.04,1.92-2.14,1.84c-0.37-0.03-1.94-0.03-2.31,0
	c-1.1,0.08-2.06-0.73-2.14-1.84c-0.24-3.02-0.84-6.7-2.27-9.18c-1.9-3.31-5.68-5.11-7.89-5.93c-0.94-0.35-1.95,0.24-2.12,1.23
	c-0.4,2.33-0.73,6.52,1.18,9.82c1.43,2.49,4.3,4.84,6.79,6.56c0.56,0.39,0.56,1.2,0.02,1.62c-1.01,0.77-1.77,1.67-2.36,2.57
	c-0.58,0.9,0.45,1.99,1.35,1.41c1.78-1.15,4.49-2.09,8.59-2.09s6.81,0.94,8.59,2.09c0.9,0.58,1.94-0.51,1.35-1.41
	c-0.59-0.91-1.35-1.8-2.35-2.58c-0.54-0.42-0.54-1.23,0.02-1.62c2.48-1.72,5.35-4.07,6.79-6.56C50.67,11.85,50.35,7.68,49.95,5.34z"
	/>
<path style="fill:#FF4081;" d="M42.27,11.77c-1.04,1.8-1.25,4.86-1.3,6.18c-0.01,0.29,0.29,0.47,0.54,0.31
	c1.12-0.7,3.65-2.41,4.69-4.22c0.91-1.58,0.83-3.54,0.68-4.63c-0.06-0.47-0.52-0.73-0.95-0.55C44.91,9.28,43.18,10.19,42.27,11.77z"
	/>
<path style="fill:#FF4081;" d="M26.46,11.77c1.04,1.8,1.26,4.86,1.3,6.19c0.01,0.29-0.29,0.47-0.53,0.31
	c-1.12-0.7-3.65-2.41-4.69-4.22c-0.91-1.58-0.83-3.54-0.69-4.63c0.06-0.47,0.52-0.73,0.95-0.55C23.81,9.28,25.55,10.19,26.46,11.77z
	"/>
<path style="fill:#AB872F;" d="M90.51,16.33c-16.3,0-16.17,15.11-16.17,15.35c0,9.79,0.75,23.62,4.65,29.06
	c1.55,2.16,4.54,2.28,4.54,2.28L90.28,63l6.74,0.01c0,0,2.99-0.12,4.54-2.28c3.91-5.44,4.65-19.27,4.65-29.06
	C106.22,31.44,106.81,16.33,90.51,16.33z"/>
<path style="fill:#C48E6A;" d="M75.96,75.4l2.33-2.38c0.17-0.12,1.1-0.14,1.29-0.08c0.06,0,0.45,0.69,0.51,0.7l0.9,0.16
	c0.38,0.09,0.63,0.48,0.54,0.87l-0.04,0.21c-0.08,0.39-0.46,0.64-0.84,0.55l-1.37-0.32l-2.38,1.68c-0.32,0.23-0.76,0.14-0.99-0.19
	l-0.12-0.18C75.56,76.07,75.64,75.62,75.96,75.4z"/>
<path style="fill:#504F4F;" d="M120.84,113.17c-0.56-2.43-3.24-5.12-5.87-7.72c-1.7-1.68-4.76-1.33-6.43,0.38s-1.97,4.78-0.27,6.46
	c2.63,2.6,5.36,5.24,7.79,5.76c1.91,0.41,3.5-0.2,4.07-0.78C120.7,116.68,121.28,115.08,120.84,113.17z"/>
<linearGradient id="SVGID_00000061440068747488125490000017363122439475570598_" gradientUnits="userSpaceOnUse" x1="86.4154" y1="25.291" x2="87.1596" y2="14.222" gradientTransform="matrix(1 0 0 -1 0 130)">
	<stop  offset="1.300000e-03" style="stop-color:#CCA47A"/>
	<stop  offset="0.4018" style="stop-color:#E0BB95"/>
</linearGradient>
<path style="fill:url(#SVGID_00000061440068747488125490000017363122439475570598_);" d="M91.3,123.82h-6.06l-3.28-19.28
	c0.65,1.7,2.3,2.91,4.24,2.91c2.5,0,4.53-2.02,4.54-4.51L91.3,123.82z"/>
<linearGradient id="SVGID_00000037667507724697767030000010874604371749245065_" gradientUnits="userSpaceOnUse" x1="107.8881" y1="32.4325" x2="109.0051" y2="15.8084" gradientTransform="matrix(1 0 0 -1 0 130)">
	<stop  offset="1.300000e-03" style="stop-color:#CCA47A"/>
	<stop  offset="0.4018" style="stop-color:#E0BB95"/>
</linearGradient>
<path style="fill:url(#SVGID_00000037667507724697767030000010874604371749245065_);" d="M115.56,113.47
	c-1,0.56-2.24,0.49-3.17-0.19l-12.15-10.64c-0.11-0.1-0.22-0.2-0.32-0.31c0.84,0.83,1.99,1.35,3.27,1.35c2.57,0,4.65-2.08,4.65-4.65
	c0-0.5-0.08-0.99-0.23-1.44c0.01,0.01,0.02,0.03,0.03,0.04l8.55,11.16C117.58,110.17,117.27,112.51,115.56,113.47z"/>
<linearGradient id="SVGID_00000103265066972065878830000008326117433678467201_" gradientUnits="userSpaceOnUse" x1="90.7177" y1="39.5825" x2="96.2061" y2="27.21" gradientTransform="matrix(1 0 0 -1 0 130)">
	<stop  offset="1.300000e-03" style="stop-color:#CCA47A"/>
	<stop  offset="0.4018" style="stop-color:#E0BB95"/>
</linearGradient>
<path style="fill:url(#SVGID_00000103265066972065878830000008326117433678467201_);" d="M107.84,99.03c0,2.57-2.08,4.65-4.65,4.65
	c-1.28,0-2.43-0.52-3.27-1.35c-0.13-0.13-0.25-0.26-0.36-0.4c-0.21-0.25-0.4-0.53-0.56-0.81l-6.83-12.65
	c-0.04-0.22-1.21-0.37-1.41-0.37c-0.2,0-0.37,0.16-0.41,0.37l0.39,14.34v0.13c-0.01,2.49-2.04,4.51-4.54,4.51
	c-1.94,0-3.59-1.21-4.24-2.91l-0.29-1.76l-3.43-20.16l11.34-8.03l12.7,8.02l4.67,13.7l0.1,0.29c0.14,0.35,0.32,0.69,0.56,0.99
	C107.76,98.04,107.84,98.53,107.84,99.03z"/>
<path style="fill:#C48E6A;" d="M104.89,75.14l-2.64-2.22c-0.17-0.12-0.72,0.24-0.91,0.29c-0.06,0-0.52,0.15-0.58,0.16l-0.9,0.16
	c-0.38,0.09-0.63,0.48-0.54,0.87l0.04,0.21c0.08,0.39,0.46,0.64,0.84,0.55l1.37-0.32l2.38,1.68c0.32,0.23,0.76,0.14,0.99-0.19
	l0.12-0.18C105.29,75.82,105.21,75.37,104.89,75.14z"/>
<path style="fill:#444444;" d="M108.77,60.34c0,0-2.07-7.41-19.04-7.41s-17.96,7.41-17.96,7.41l6.35,4.83h23.25L108.77,60.34z"/>
<linearGradient id="SVGID_00000140701016152572379560000015812290287547761037_" gradientUnits="userSpaceOnUse" x1="90.24" y1="66.5149" x2="90.24" y2="42.1134" gradientTransform="matrix(1 0 0 -1 0 130)">
	<stop  offset="0" style="stop-color:#515151"/>
	<stop  offset="0.9439" style="stop-color:#313131"/>
</linearGradient>
<path style="fill:url(#SVGID_00000140701016152572379560000015812290287547761037_);" d="M109.74,60.34c0,0-3.07-7.41-20.04-7.41
	s-18.96,7.41-18.96,7.41l7.42,6.89v15.42l9.74,6.43c0.77,0.39,1.62,0.59,2.48,0.59c0.89,0,1.77-0.22,2.56-0.63l9.31-6.39V67.23
	L109.74,60.34z"/>
<linearGradient id="SVGID_00000163751662274212275090000017206537645358127514_" gradientUnits="userSpaceOnUse" x1="100.1849" y1="63.9257" x2="109.8589" y2="52.5769" gradientTransform="matrix(1 0 0 -1 0 130)">
	<stop  offset="1.300000e-03" style="stop-color:#CCA47A"/>
	<stop  offset="0.4018" style="stop-color:#E0BB95"/>
</linearGradient>
<path style="fill:url(#SVGID_00000163751662274212275090000017206537645358127514_);" d="M115.71,69.01l-7.39-9.77l-6.18,4.36
	l7.42,6.95l-5.19,4.31c-0.54-0.02-1.47-0.16-2.66-0.16h-0.39l-0.02-0.01c0,0-1.67,0.12-2.11,0.46c-0.4,0.31-0.36,0.85-0.18,1.05
	c0.21,0.24,0.16,0.66-0.05,0.89c-0.21,0.24-0.34,0.53-0.32,0.83c0.02,0.29,0.15,0.46,0.44,0.68c0.14,0.1,0.21,0.38,0.14,0.53
	c-0.12,0.24-0.31,0.65-0.27,0.87c0.09,0.43,0.53,0.52,0.63,0.85c0.04,0.13-0.37,0.57,0.05,0.94c0.39,0.35,1.06,0.63,2.08,0.63
	c0.91,0,2.1-0.22,3.61-0.82c0.04-0.02,10.39-8.44,10.39-8.44C116.76,72.05,116.71,70.17,115.71,69.01z"/>
<linearGradient id="SVGID_00000062908725259917723890000010912641510484545470_" gradientUnits="userSpaceOnUse" x1="80.7278" y1="63.3221" x2="70.3105" y2="52.9048" gradientTransform="matrix(1 0 0 -1 0 130)">
	<stop  offset="1.300000e-03" style="stop-color:#CCA47A"/>
	<stop  offset="0.4018" style="stop-color:#E0BB95"/>
</linearGradient>
<path style="fill:url(#SVGID_00000062908725259917723890000010912641510484545470_);" d="M82.22,77.94c0.02-0.3-0.11-0.59-0.32-0.83
	s-0.26-0.66-0.05-0.89c0.18-0.2,0.21-0.75-0.18-1.05c-0.44-0.34-2.11-0.46-2.11-0.46l-0.02,0.01h-0.39c-1.19,0-2.12,0.13-2.66,0.16
	l-5.19-4.31l7.42-6.95l-6.19-4.38l-7.38,9.79c-1,1.15-1.05,3.04,0,4.15c0,0,10.35,8.42,10.39,8.44c1.51,0.59,2.7,0.82,3.61,0.82
	c1.01,0,1.69-0.28,2.08-0.63c0.42-0.38,0.01-0.81,0.05-0.94c0.1-0.33,0.53-0.42,0.63-0.85c0.05-0.21-0.15-0.63-0.27-0.87
	c-0.08-0.15,0-0.43,0.14-0.53C82.07,78.4,82.2,78.23,82.22,77.94z"/>
<linearGradient id="SVGID_00000174592363032603297880000014414057267377846666_" gradientUnits="userSpaceOnUse" x1="90.27" y1="66.5149" x2="90.27" y2="42.1135" gradientTransform="matrix(1 0 0 -1 0 130)">
	<stop  offset="0" style="stop-color:#515151"/>
	<stop  offset="0.9439" style="stop-color:#313131"/>
</linearGradient>
<path style="fill:url(#SVGID_00000174592363032603297880000014414057267377846666_);" d="M109.77,60.34c0,0-3.07-7.41-20.04-7.41
	s-18.96,7.41-18.96,7.41l7.35,6.83h24.25L109.77,60.34z"/>
<path style="fill:#E0BB95;" d="M100.76,54.3c-0.09,3-3.82,7.27-10.5,7.27c-6.76,0-10.5-4.33-10.5-7.33c0-0.05,0-0.1,0.01-0.15
	c2.48-0.7,5.72-1.16,9.96-1.16C94.48,52.93,98.07,53.46,100.76,54.3z"/>
<path style="fill:#504F4F;" d="M87.99,124h-4.38c-0.81-0.02-1.39-0.95-1.15-1.75c0.73-2.46,2.95-4.27,5.53-4.27
	c2.64,0,4.89,1.88,5.57,4.41c0.22,0.81-0.38,1.61-1.19,1.61H87.99z"/>
<path style="fill:#C48E6A;" d="M90,57.3c-1.97,0-3.57-1.52-3.57-3.4v-4.26h7.96v4.26c0,1.87-1.6,3.4-3.57,3.4H90z"/>
<path style="fill:#E0BB95;" d="M90.3,20.27c-6.84,0-13.17,5.1-13.17,15.91c0,8.68,5.36,13.82,10.03,15.48
	c1.11,0.39,2.19,0.59,3.14,0.59c0.95,0,2.01-0.2,3.12-0.59c4.67-1.65,10.05-6.79,10.05-15.48C103.47,25.37,97.14,20.27,90.3,20.27z"
	/>
<path style="fill:#5D4037;" d="M83.91,40.03c1.07,0,1.93-0.9,1.93-2.01s-0.86-2.01-1.93-2.01c-1.07,0-1.93,0.9-1.93,2.01
	S82.84,40.03,83.91,40.03z"/>
<path style="fill:#5D4037;" d="M96.82,40.03c1.07,0,1.93-0.9,1.93-2.01s-0.86-2.01-1.93-2.01s-1.93,0.9-1.93,2.01
	S95.75,40.03,96.82,40.03z"/>
<path style="fill:#C48E6A;" d="M91.78,41.67c-0.04-0.02-0.08-0.03-0.13-0.03h-2.78c-0.04,0.01-0.08,0.02-0.13,0.03
	c-0.25,0.1-0.39,0.36-0.27,0.64s0.67,1.06,1.79,1.06c1.11,0,1.67-0.78,1.79-1.06C92.17,42.04,92.03,41.78,91.78,41.67z"/>
<path style="fill:#AB872F;" d="M86.78,34.41c-0.37-0.49-1.22-1.2-2.87-1.2s-2.51,0.71-2.87,1.2c-0.16,0.22-0.12,0.47-0.01,0.62
	c0.1,0.14,0.41,0.27,0.76,0.15c0.34-0.12,1.01-0.46,2.13-0.47c1.12,0.01,1.79,0.35,2.13,0.47c0.34,0.12,0.65-0.01,0.76-0.15
	C86.91,34.87,86.95,34.62,86.78,34.41z"/>
<path style="fill:#AB872F;" d="M99.7,34.41c-0.37-0.49-1.22-1.2-2.87-1.2s-2.51,0.71-2.87,1.2c-0.16,0.22-0.12,0.47-0.01,0.62
	c0.1,0.14,0.41,0.27,0.76,0.15c0.34-0.12,1.01-0.46,2.13-0.47c1.12,0.01,1.79,0.35,2.13,0.47c0.34,0.12,0.65-0.01,0.76-0.15
	C99.82,34.87,99.86,34.62,99.7,34.41z"/>
<path style="fill:#AB872F;" d="M90.47,16.33c-16.34,0-16.21,15.11-16.21,15.35c0,7.3,0.42,16.85,2.26,23.49
	c0.6-0.27,1.26-0.52,1.98-0.75c0.26-0.09,0.53-0.17,0.81-0.25c-0.15-2.04-0.79-10.82-0.87-15.24c-0.02-1.17-0.37-5.52,2.05-6.07
	c8.89-2.02,13.91-6.79,13.91-6.79c1.31,2.89,5.4,5.71,6.86,6.78c1.21,0.88,1.04,4.49,1.01,6.04l-1.19,15.49
	c0.16,0.05,0.32,0.1,0.48,0.15c0.86,0.28,1.63,0.59,2.33,0.9c1.91-6.65,2.33-16.35,2.33-23.75
	C106.22,31.44,106.81,16.33,90.47,16.33z"/>
<path style="fill:#6D4C41;" d="M93.57,45.08c-1.25,0.75-5.35,0.75-6.6,0c-0.72-0.43-1.45,0.23-1.15,0.88
	c0.29,0.64,2.53,2.14,4.46,2.14s4.14-1.49,4.44-2.14C95.02,45.3,94.29,44.65,93.57,45.08z"/>
<radialGradient id="SVGID_00000088842486957122521190000015360079659355954332_" cx="-842.2142" cy="584.2737" r="1" gradientTransform="matrix(16.9553 0 0 -22.9178 14370.3184 13429.6826)" gradientUnits="userSpaceOnUse">
	<stop  offset="0.7936" style="stop-color:#BFA055;stop-opacity:0"/>
	<stop  offset="1" style="stop-color:#BFA055"/>
</radialGradient>
<path style="fill:url(#SVGID_00000088842486957122521190000015360079659355954332_);" d="M106.23,31.66
	c0,7.41-0.43,17.12-2.34,23.77c-3.03-1.39-7.54-2.52-14.18-2.52c-6.17,0-10.36,0.98-13.19,2.22c-1.83-6.64-2.25-16.17-2.25-23.47
	c0-0.24-0.13-15.35,16.21-15.35C106.82,16.31,106.23,31.42,106.23,31.66z"/>
<linearGradient id="SVGID_00000170976582218517435010000017993918222950237323_" gradientUnits="userSpaceOnUse" x1="90.4102" y1="113.2835" x2="90.4102" y2="99.5344" gradientTransform="matrix(1 0 0 -1 0 130)">
	<stop  offset="0" style="stop-color:#504F4F"/>
	<stop  offset="0.2747" style="stop-color:#4A4A4A"/>
	<stop  offset="0.6021" style="stop-color:#3C3B3B"/>
	<stop  offset="0.9552" style="stop-color:#242424"/>
	<stop  offset="1" style="stop-color:#212121"/>
</linearGradient>
<path style="fill:url(#SVGID_00000170976582218517435010000017993918222950237323_);" d="M105.99,5.34c-0.17-1-1.2-1.59-2.14-1.24
	c-2.22,0.82-5.98,2.63-7.88,5.93c-1.43,2.48-2.03,6.16-2.27,9.18c-0.09,1.1-1.04,1.92-2.14,1.84c-0.37-0.03-1.94-0.03-2.31,0
	c-1.1,0.08-2.06-0.73-2.14-1.84c-0.24-3.02-0.84-6.7-2.27-9.18c-1.9-3.31-5.68-5.11-7.89-5.93C76.01,3.75,75,4.34,74.83,5.33
	c-0.4,2.33-0.73,6.52,1.18,9.82c1.43,2.49,4.3,4.84,6.79,6.56c0.56,0.39,0.56,1.2,0.02,1.62c-1.01,0.77-1.77,1.67-2.36,2.57
	c-0.58,0.9,0.45,1.99,1.35,1.41c1.78-1.15,4.49-2.09,8.59-2.09s6.81,0.94,8.59,2.09c0.9,0.58,1.94-0.51,1.35-1.41
	c-0.59-0.91-1.35-1.8-2.35-2.58c-0.54-0.42-0.54-1.23,0.02-1.62c2.48-1.72,5.35-4.07,6.79-6.56
	C106.71,11.85,106.39,7.68,105.99,5.34z"/>
<path style="fill:#FF4081;" d="M98.31,11.77c-1.04,1.8-1.25,4.86-1.3,6.18c-0.01,0.29,0.29,0.47,0.54,0.31
	c1.12-0.7,3.65-2.41,4.69-4.22c0.91-1.58,0.83-3.54,0.68-4.63c-0.06-0.47-0.52-0.73-0.95-0.55C100.95,9.28,99.22,10.19,98.31,11.77z
	"/>
<path style="fill:#FF4081;" d="M82.5,11.77c1.04,1.8,1.26,4.86,1.3,6.19c0.01,0.29-0.29,0.47-0.53,0.31
	c-1.12-0.7-3.65-2.41-4.69-4.22c-0.91-1.58-0.83-3.54-0.69-4.63c0.06-0.47,0.52-0.73,0.95-0.55C79.85,9.28,81.59,10.19,82.5,11.77z"
	/>
</svg>
