<?xml version="1.0" encoding="utf-8"?>
<!-- Generator: Adobe Illustrator 26.3.1, SVG Export Plug-In . SVG Version: 6.00 Build 0)  -->
<svg version="1.1" id="Layer_2_00000174561880903390296930000001549413106614166929_"
	 xmlns="http://www.w3.org/2000/svg" xmlns:xlink="http://www.w3.org/1999/xlink" x="0px" y="0px" viewBox="0 0 128 128"
	 style="enable-background:new 0 0 128 128;" xml:space="preserve">
<path style="fill:#9EA2A3;" d="M24.4,122.1c-0.7,1.6,2,1.3,8.1,1.5s35.1-5.3,35.1-5.3l32.3-21.4l-2.6-24.3l1.1-35.8
	c0,0-0.5-4.6-1.2-5.1c-0.6-0.5-2.1-1-3.5-0.3c-1.4,0.6-8.9,7.5-14.2,13.9c-5.3,6.4-7.3,9.5-7.3,9.5S66,59,63.4,62.2
	c-2.5,3.1-4.8,8.8-6.3,15s-2.7,9.1-3.5,10.5C52.7,89,43.2,102.2,41.5,105s-2.6,5-2.6,5s-1.6-1.9-3.7-0.9c-2.1,1.1-4.9,6-6.6,7.9
	S24.9,121,24.4,122.1z"/>
<path style="fill:#778183;" d="M53,103.8l-17.7,19.6l3.7,0.3l84.5-0.3c0,0-1.6-14.7-2.4-19.1c-0.7-4.4-5-27.7-6-31.1
	s-2.1-6.5-3.6-7.5s-3.5-0.6-3.5-0.6l-2.2,1.3c0,0-1.3-14.5-2.2-19.1s-2.2-11-3.7-13s-2.7-2.6-2.7-2.6S92,44.9,90.3,49.5
	s-5,14.8-8,14.8s-5.8-5.1-7.1-5.3c-1.3-0.2-5.1,12.3-5.1,12.3l-1.5,20.3L81,79.2c0,0,8.3,14.1,8.7,14.7c2.2,3.1-0.8,6.3-2.4,4
	c-1.9-2.8-5.7-9.4-5.7-9.4l-22.4,22.3c0,0-2.6-2.4-1-4.4s3.2-3.7,3.2-3.7L53,103.8z"/>
<path style="fill:#9EA2A3;" d="M110.8,68.4c-0.4,0.7-0.5,3.4-2.7,3.2c-2.2-0.2-3.1-2.9-2.1-4.5s1.9-2,3-2.2c2.4-0.5,3.3,1.5,3.3,1.5
	S111.3,67.4,110.8,68.4z"/>
<path style="fill:#C0C0C0;" d="M70.5,87.7c0,0,5.2-28.1,4.8-28.8c-0.5-0.7-1.5-0.9-2.4-0.5c-0.9,0.3-2.1,0.7-2.5,1.4
	S61.5,84,61.5,84.9c-0.1,0.9,2.6,4.5,3,5.2s1.9,2.1,1.9,2.1s-3.5,4.4-4,4.9s-0.4,1.6,0.2,2.1c0.6,0.4,1.5,0.7,2.2,0
	c0.8-0.7,16.2-18,16.6-18.4c0.4-0.3,0.4-0.8-0.3-1.6c-0.7-0.8-2-0.6-2.8,0.3S70.5,87.7,70.5,87.7z"/>
<path style="fill:#C0C0C0;" d="M32.4,123.6c0,0,18.3-20.3,18.8-21.1c0.4-0.7,1.5-1.8,2.7-1.9c1.3-0.1,5.1-0.7,6.3-0.7
	s2.2,0.8,2.2,1.8c0,0.9-1.9,2.1-3.7,2.8c-1.8,0.7-3.5,0.5-4.7,1.8s-15,17.4-15,17.4L32.4,123.6z"/>
<path style="fill:#778183;" d="M8.1,93.2c0,0-3.9,6.1-3.9,7.7s-0.3,5,3.1,6.9c2,1.1,4.5,0.7,5.6,0.7s4.2,1.1,6.2,0.9
	s11.2-3.4,13-4.7c1.8-1.2,4.9-3.9,4.4-9.1c-0.6-5.2-3-7.3-4-9.3s-1.5-4.7-3-6.1S26.2,77.1,24,77s-4.8,0.8-4.8,0.8L8.1,93.2z"/>
<path style="fill:#9EA2A3;" d="M19.4,92.3c-1,0.6-12.6,8.5-13.6,8.6c-0.9,0.2-1.5-0.7-1.5-0.7s-0.3-4,1.2-8.7
	c1.3-4.5,3.5-9.2,4.4-10c2-1.9,9.2-4.6,10.5-4.1c1.2,0.5,4.2,6.5,5.4,8.5c1.1,2.1,1.5,3.5-0.8,5.2C21.5,93.8,19.4,92.3,19.4,92.3z"
	/>
<path style="fill:#9EA2A3;" d="M15.9,99.1c-1.1,1-4.3,4.1-2.3,5.9s4.7-1.7,6.1-2.8c1.4-1,3.4-2.8,2-4.6C20.3,96,17.9,97.2,15.9,99.1
	z"/>
<path style="fill:#778183;" d="M21.8,73.3c0,0,2.2,3.3,5.2,2.5c3-0.9,4.9-4.6,5.3-6.4c0.4-1.8-1.5-3.9-3.6-5.2
	c-2.1-1.3-7.4,1.3-7.4,1.3L21.8,73.3z"/>
<path style="fill:#778183;" d="M39.2,72l1.1,3.3c0,0,1.9,2.8,6.6,1.8c4.7-0.9,4.6-2.4,6.1-4.9c1.5-2.6,2.9-4.5,1-6.8
	c-1.9-2.4-5.7-7-7.9-7s-5.8,4.4-5.8,4.4L39.2,72z"/>
<path style="fill:#778183;" d="M38.2,87.9c0,0,1.3,2.8,3.9,3.1c2.6,0.3,2.6-0.9,3.7-1.1c1.1-0.2,3.8-0.9,3.9-3.4
	c0.1-2.6-1.6-3.4-3.1-4.5s-4.9,1.4-4.9,1.4L38.2,87.9z"/>
<path style="fill:#778183;" d="M38.7,52.4c0,0,0.4,2.9,3,2.5c2.7-0.5,3.7-1.9,5.1-2.7c1.4-0.8,2.8-0.2,3.5-2.4
	c0.8-2.2-1.9-4.3-2.8-5.3c-0.9-1-2.6-2.1-2.6-2.1l-3.1,2.5L38.7,52.4z"/>
<path style="fill:#778183;" d="M63.3,54.4c0,0,1.3,1,2.8,0.7s2.2-1.6,2.5-2.8s0.8-2.8-0.5-3.9c-1.2-1.1-3.1-0.9-3.1-0.9L63.3,54.4z"
	/>
<path style="fill:#778183;" d="M61.3,41.7c0,0,1.1,2.7,2.8,2.5c1.6-0.2,2.5-1.5,3-2.8c0.6-1.3,0-3.1-1.2-3.6s-2.4-0.4-2.4-0.4
	L61.3,41.7z"/>
<path style="fill:#778183;" d="M72.7,38.2c0,0,0.3,3.1,3.4,2.5s4.6-2,4.6-3.3s-0.6-3.3-1.8-3.9s-4.3,1-4.3,1L72.7,38.2z"/>
<path style="fill:#778183;" d="M80.9,28.7c0,0,0.8,1.3,2.2,0.9s2.1-0.9,1.9-2.2c-0.2-1.2-1.2-1.8-1.2-1.8L80.9,28.7z"/>
<path style="fill:#9EA2A3;" d="M82.4,25.2c-1,0-1.6,0.7-1.9,1.5s0.4,1.9,0.4,1.9s0.5,1,1.8,0.2s1.8-2.4,1.6-2.8
	C84.1,25.6,83,25.2,82.4,25.2z"/>
<path style="fill:#9EA2A3;" d="M73.1,33.8c-0.1,0.4-0.9,4.4-0.3,4.6c0.6,0.2,2.5-1,3.1-1.5s1.5-2.2,2.1-2.4s1.4-0.7,1.4-0.7
	s-0.8-0.9-2.1-1.2C76.1,32.4,73.4,32,73.1,33.8z"/>
<path style="fill:#9EA2A3;" d="M63.6,40.5c-0.3,0.5-2.3,1.2-2.3,1.2s-0.7-1.6-0.2-2.4c0.5-0.8,1.7-2,2.4-1.9
	C64.2,37.4,63.7,40.3,63.6,40.5z"/>
<path style="fill:#9EA2A3;" d="M62,47.3c-0.9,0.6-1.1,2.2-1.2,3.5c-0.1,1.3,0.2,1.8,1,2.5s1.5,1.1,1.5,1.1s1-3.3,1.7-3.8
	c0.6-0.6,1.3-0.3,1.9-1.7s-0.2-1.4-0.2-1.4S63.6,46.2,62,47.3z"/>
<path style="fill:#9EA2A3;" d="M45,42.5c0.5,0.5-0.9,2-0.9,2s-2.2,6.6-2.8,7.3s-2.5,0.6-2.5,0.6s-0.3-1.6-0.6-4.3s-0.1-3.7,0.8-4.5
	s2.6-1.5,3.6-1.5C43.5,42.1,44.5,41.9,45,42.5z"/>
<path style="fill:#9EA2A3;" d="M46.1,58.3c0,0,1.9,2.4,2.4,3.7s0.6,3.3-0.8,3.8s-2.4-0.3-2.8-0.7c-0.4-0.4-2.1-2.7-2.7-2.3
	c-0.6,0.4,1,3,0.9,4.7c-0.1,1.7-0.3,2.8-1,4.2c-0.7,1.3-1.9,3.6-1.9,3.6s-4-4.6-4.4-6.2c-0.4-1.5-0.8-3.7,0.7-5.5
	c1.5-1.7,2.2-2.6,2.9-2.7C40.3,60.9,44.1,57.9,46.1,58.3z"/>
<path style="fill:#9EA2A3;" d="M20.1,71.6c0.7,0.9,2.4,2.5,2.4,2.5s0.9-0.9,0.9-1.3s-0.3-3.5,0.1-4.4c0.4-0.8,5.3-4.2,5.3-4.2
	s-2.2-1.7-3.6-1.7S21,63.2,20,64.3c-1.3,1.4-1.7,1.9-1.7,3.5S19,70.1,20.1,71.6z"/>
<path style="fill:#9EA2A3;" d="M38.2,87.9c0,0-1.6-2-0.7-3.8s3-1.9,3.8-2.6c0.8-0.8,1.5-1.2,2.9-1s2.3,1.5,2.3,1.5s-0.4,1.7-1.5,2.3
	c-1,0.6-1.7-0.1-2.6,0.3C41.6,85,38.2,87.9,38.2,87.9z"/>
</svg>
