<?xml version="1.0" encoding="utf-8"?>
<!-- Generator: Adobe Illustrator 26.3.1, SVG Export Plug-In . SVG Version: 6.00 Build 0)  -->
<svg version="1.1" id="Layer_1" xmlns="http://www.w3.org/2000/svg" xmlns:xlink="http://www.w3.org/1999/xlink" x="0px" y="0px"
	 viewBox="0 0 128 128" style="enable-background:new 0 0 128 128;" xml:space="preserve">
<path style="fill:#3C2B24;" d="M75.96,75.4l2.33-2.38c0.17-0.12,1.1-0.14,1.29-0.08c0.06,0,0.45,0.69,0.51,0.7l0.9,0.16
	c0.38,0.09,0.63,0.48,0.54,0.87l-0.04,0.21c-0.08,0.39-0.46,0.64-0.84,0.55l-1.37-0.32l-2.38,1.68c-0.32,0.23-0.76,0.14-0.99-0.19
	l-0.12-0.18C75.56,76.07,75.64,75.62,75.96,75.4z"/>
<path style="fill:#3F3F3F;" d="M120.84,113.17c-0.56-2.43-3.24-5.12-5.87-7.72c-1.7-1.68-4.76-1.33-6.43,0.38s-1.97,4.78-0.27,6.46
	c2.63,2.6,5.36,5.24,7.79,5.76c1.91,0.41,3.5-0.2,4.07-0.78C120.7,116.68,121.28,115.08,120.84,113.17z"/>
<linearGradient id="SVGID_1_" gradientUnits="userSpaceOnUse" x1="86.4154" y1="25.291" x2="87.1596" y2="14.222" gradientTransform="matrix(1 0 0 -1 0 130)">
	<stop  offset="0.1681" style="stop-color:#5C4037"/>
	<stop  offset="0.5178" style="stop-color:#70534A"/>
</linearGradient>
<path style="fill:url(#SVGID_1_);" d="M91.3,123.82h-6.06l-3.28-19.28c0.65,1.7,2.3,2.91,4.24,2.91c2.5,0,4.53-2.02,4.54-4.51
	L91.3,123.82z"/>
<linearGradient id="SVGID_00000170982181432968807510000015132254817417549474_" gradientUnits="userSpaceOnUse" x1="107.8881" y1="32.4325" x2="109.0051" y2="15.8084" gradientTransform="matrix(1 0 0 -1 0 130)">
	<stop  offset="0.1681" style="stop-color:#5C4037"/>
	<stop  offset="0.5178" style="stop-color:#70534A"/>
</linearGradient>
<path style="fill:url(#SVGID_00000170982181432968807510000015132254817417549474_);" d="M115.56,113.47
	c-1,0.56-2.24,0.49-3.17-0.19l-12.15-10.64c-0.11-0.1-0.22-0.2-0.32-0.31c0.84,0.83,1.99,1.35,3.27,1.35c2.57,0,4.65-2.08,4.65-4.65
	c0-0.5-0.08-0.99-0.23-1.44c0.01,0.01,0.02,0.03,0.03,0.04l8.55,11.16C117.58,110.17,117.27,112.51,115.56,113.47z"/>
<linearGradient id="SVGID_00000022522426380380863790000002472286412139885756_" gradientUnits="userSpaceOnUse" x1="90.7177" y1="39.5825" x2="96.2061" y2="27.21" gradientTransform="matrix(1 0 0 -1 0 130)">
	<stop  offset="0.1681" style="stop-color:#5C4037"/>
	<stop  offset="0.5178" style="stop-color:#70534A"/>
</linearGradient>
<path style="fill:url(#SVGID_00000022522426380380863790000002472286412139885756_);" d="M107.84,99.03c0,2.57-2.08,4.65-4.65,4.65
	c-1.28,0-2.43-0.52-3.27-1.35c-0.13-0.13-0.25-0.26-0.36-0.4c-0.21-0.25-0.4-0.53-0.56-0.81l-6.83-12.65
	c-0.04-0.22-1.21-0.37-1.41-0.37c-0.2,0-0.37,0.16-0.41,0.37l0.39,14.34v0.13c-0.01,2.49-2.04,4.51-4.54,4.51
	c-1.94,0-3.59-1.21-4.24-2.91l-0.29-1.76l-3.43-20.16l11.34-8.03l12.7,8.02l4.67,13.7l0.1,0.29c0.14,0.35,0.32,0.69,0.56,0.99
	C107.76,98.04,107.84,98.53,107.84,99.03z"/>
<path style="fill:#3C2B24;" d="M104.89,75.14l-2.64-2.22c-0.17-0.12-0.72,0.24-0.91,0.29c-0.06,0-0.52,0.15-0.58,0.16l-0.9,0.16
	c-0.38,0.09-0.63,0.48-0.54,0.87l0.04,0.21c0.08,0.39,0.46,0.64,0.84,0.55l1.37-0.32l2.38,1.68c0.32,0.23,0.76,0.14,0.99-0.19
	l0.12-0.18C105.29,75.82,105.21,75.37,104.89,75.14z"/>
<path style="fill:#444444;" d="M108.77,60.34c0,0-2.07-7.41-19.04-7.41s-17.96,7.41-17.96,7.41l6.35,4.83h23.25L108.77,60.34z"/>
<linearGradient id="SVGID_00000064350177935897133560000007554239356703475079_" gradientUnits="userSpaceOnUse" x1="90.24" y1="69.4663" x2="90.24" y2="47.8469" gradientTransform="matrix(1 0 0 -1 0 130)">
	<stop  offset="0" style="stop-color:#515151"/>
	<stop  offset="0.9439" style="stop-color:#313131"/>
</linearGradient>
<path style="fill:url(#SVGID_00000064350177935897133560000007554239356703475079_);" d="M109.74,60.34c0,0-3.07-7.41-20.04-7.41
	s-18.96,7.41-18.96,7.41l7.42,6.89v15.42l9.74,6.43c0.77,0.39,1.62,0.59,2.48,0.59c0.89,0,1.77-0.22,2.56-0.63l9.31-6.39V67.23
	L109.74,60.34z"/>
<linearGradient id="SVGID_00000152259775877841446700000000354415977708297859_" gradientUnits="userSpaceOnUse" x1="100.1849" y1="63.9257" x2="109.8589" y2="52.5769" gradientTransform="matrix(1 0 0 -1 0 130)">
	<stop  offset="0.1681" style="stop-color:#5C4037"/>
	<stop  offset="0.5178" style="stop-color:#70534A"/>
</linearGradient>
<path style="fill:url(#SVGID_00000152259775877841446700000000354415977708297859_);" d="M115.71,69.01l-7.39-9.77l-6.18,4.36
	l7.42,6.95l-5.19,4.31c-0.54-0.02-1.47-0.16-2.66-0.16h-0.39l-0.02-0.01c0,0-1.67,0.12-2.11,0.46c-0.4,0.31-0.36,0.85-0.18,1.05
	c0.21,0.24,0.16,0.66-0.05,0.89c-0.21,0.24-0.34,0.53-0.32,0.83c0.02,0.29,0.15,0.46,0.44,0.68c0.14,0.1,0.21,0.38,0.14,0.53
	c-0.12,0.24-0.31,0.65-0.27,0.87c0.09,0.43,0.53,0.52,0.63,0.85c0.04,0.13-0.37,0.57,0.05,0.94c0.39,0.35,1.06,0.63,2.08,0.63
	c0.91,0,2.1-0.22,3.61-0.82c0.04-0.02,10.39-8.44,10.39-8.44C116.76,72.05,116.71,70.17,115.71,69.01z"/>
<linearGradient id="SVGID_00000050633494984755299820000004747395349902449552_" gradientUnits="userSpaceOnUse" x1="80.7278" y1="63.3221" x2="70.3105" y2="52.9048" gradientTransform="matrix(1 0 0 -1 0 130)">
	<stop  offset="0.1681" style="stop-color:#5C4037"/>
	<stop  offset="0.5178" style="stop-color:#70534A"/>
</linearGradient>
<path style="fill:url(#SVGID_00000050633494984755299820000004747395349902449552_);" d="M82.22,77.94c0.02-0.3-0.11-0.59-0.32-0.83
	s-0.26-0.66-0.05-0.89c0.18-0.2,0.21-0.75-0.18-1.05c-0.44-0.34-2.11-0.46-2.11-0.46l-0.02,0.01h-0.39c-1.19,0-2.12,0.13-2.66,0.16
	l-5.19-4.31l7.42-6.95l-6.19-4.38l-7.38,9.79c-1,1.15-1.05,3.04,0,4.15c0,0,10.35,8.42,10.39,8.44c1.51,0.59,2.7,0.82,3.61,0.82
	c1.01,0,1.69-0.28,2.08-0.63c0.42-0.38,0.01-0.81,0.05-0.94c0.1-0.33,0.53-0.42,0.63-0.85c0.05-0.21-0.15-0.63-0.27-0.87
	c-0.08-0.15,0-0.43,0.14-0.53C82.07,78.4,82.2,78.23,82.22,77.94z"/>
<linearGradient id="SVGID_00000152223052570989207500000010014198881217578377_" gradientUnits="userSpaceOnUse" x1="90.27" y1="69.4663" x2="90.27" y2="47.8469" gradientTransform="matrix(1 0 0 -1 0 130)">
	<stop  offset="0" style="stop-color:#515151"/>
	<stop  offset="0.9439" style="stop-color:#313131"/>
</linearGradient>
<path style="fill:url(#SVGID_00000152223052570989207500000010014198881217578377_);" d="M109.77,60.34c0,0-3.07-7.41-20.04-7.41
	s-18.96,7.41-18.96,7.41l7.35,6.83h24.25L109.77,60.34z"/>
<path style="fill:#70534A;" d="M100.76,54.3c-0.09,3-3.82,7.27-10.5,7.27c-6.76,0-10.5-4.33-10.5-7.33c0-0.05,0-0.1,0.01-0.15
	c2.48-0.7,5.72-1.16,9.96-1.16C94.48,52.93,98.07,53.46,100.76,54.3z"/>
<path style="fill:#3F3F3F;" d="M87.99,124h-4.38c-0.81-0.02-1.39-0.95-1.15-1.75c0.73-2.46,2.95-4.27,5.53-4.27
	c2.64,0,4.89,1.88,5.57,4.41c0.22,0.81-0.38,1.61-1.19,1.61H87.99z"/>
<path style="fill:#232020;" d="M104.41,45.58c-0.5-0.91,0.14-1.84,1.23-2.99c1.73-1.82,3.61-6.04,1.86-10.33
	c0.01-0.02-0.34-0.75-0.33-0.77l-0.72-0.04c-0.23-0.03-8.13-0.05-16.03-0.05c-7.9,0-15.8,0.02-16.03,0.05c0,0-1.06,0.78-1.05,0.81
	c-1.75,4.29,0.13,8.51,1.86,10.33c1.09,1.15,1.73,2.07,1.23,2.99c-0.49,0.88-1.93,1.01-1.93,1.01s0.33,0.91,1.14,1.39
	c0.74,0.45,1.66,0.56,2.29,0.57c0,0,2.47,3.42,8.92,3.42l3.59,0l3.59,0c6.45,0,8.92-3.42,8.92-3.42c0.63-0.01,1.54-0.12,2.29-0.57
	c0.8-0.49,1.14-1.39,1.14-1.39S104.89,46.47,104.41,45.58z"/>
<radialGradient id="SVGID_00000158710420693813357040000010053543241928616364_" cx="-799.7244" cy="502.0576" r="1" gradientTransform="matrix(9.3938 0 0 -4.6142 7608.7104 2363.1162)" gradientUnits="userSpaceOnUse">
	<stop  offset="0.7275" style="stop-color:#444140;stop-opacity:0"/>
	<stop  offset="1" style="stop-color:#444140"/>
</radialGradient>
<path style="fill:url(#SVGID_00000158710420693813357040000010053543241928616364_);" d="M90.41,51.98v-3.79l11.46-0.91l1.04,1.28
	c0,0-2.47,3.42-8.92,3.42L90.41,51.98z"/>
<radialGradient id="SVGID_00000097477006561228976480000001392395030313890979_" cx="-1114.5018" cy="998.1049" r="1" gradientTransform="matrix(-2.5143 1.1765 0.8728 1.8653 -3567.8433 -505.4039)" gradientUnits="userSpaceOnUse">
	<stop  offset="0.6628" style="stop-color:#444140"/>
	<stop  offset="1" style="stop-color:#444140;stop-opacity:0"/>
</radialGradient>
<path style="fill:url(#SVGID_00000097477006561228976480000001392395030313890979_);" d="M102.88,46.91
	c-1.72-2.61,2.09-3.58,2.09-3.58s0,0,0,0c-0.66,0.82-0.96,1.54-0.57,2.25c0.49,0.88,1.93,1.01,1.93,1.01S104.37,48.35,102.88,46.91z
	"/>
<radialGradient id="SVGID_00000043427238435748019050000008883933846212225185_" cx="-939.3223" cy="520.6634" r="1" gradientTransform="matrix(-0.9096 -12.1595 -10.1342 0.7581 4520.3652 -11779.1816)" gradientUnits="userSpaceOnUse">
	<stop  offset="0.7247" style="stop-color:#444140;stop-opacity:0"/>
	<stop  offset="1" style="stop-color:#444140"/>
</radialGradient>
<path style="fill:url(#SVGID_00000043427238435748019050000008883933846212225185_);" d="M107.5,32.27
	c1.7,4.15-0.09,8.43-1.77,10.23c-0.23,0.25-1.21,1.21-1.43,1.97c0,0-3.83-5.34-4.97-8.47c-0.23-0.63-0.44-1.28-0.47-1.96
	c-0.02-0.5,0.06-1.11,0.35-1.53c0.36-0.53,8.09-0.68,8.09-0.68C107.3,31.83,107.5,32.27,107.5,32.27z"/>
<radialGradient id="SVGID_00000083798184506455749900000012663746067656106673_" cx="-928.3709" cy="513.6896" r="1" gradientTransform="matrix(0.9096 -12.1595 -10.1342 -0.7581 6132.8242 -10861.8408)" gradientUnits="userSpaceOnUse">
	<stop  offset="0.7247" style="stop-color:#444140;stop-opacity:0"/>
	<stop  offset="1" style="stop-color:#444140"/>
</radialGradient>
<path style="fill:url(#SVGID_00000083798184506455749900000012663746067656106673_);" d="M73.32,32.27
	c-1.7,4.15,0.09,8.43,1.77,10.23c0.23,0.25,1.21,1.21,1.43,1.97c0,0,3.83-5.34,4.97-8.47c0.23-0.63,0.44-1.28,0.47-1.96
	c0.02-0.5-0.06-1.11-0.35-1.53c-0.36-0.53-0.77-0.39-1.38-0.39c-1.16,0-6.21-0.29-6.61-0.29C73.63,31.83,73.32,32.27,73.32,32.27z"
	/>
<radialGradient id="SVGID_00000030471633238575510180000017060976141309028284_" cx="-990.2756" cy="707.9424" r="1" gradientTransform="matrix(-9.3938 0 0 4.6142 -9217.8809 -3220.1023)" gradientUnits="userSpaceOnUse">
	<stop  offset="0.7275" style="stop-color:#444140;stop-opacity:0"/>
	<stop  offset="1" style="stop-color:#444140"/>
</radialGradient>
<path style="fill:url(#SVGID_00000030471633238575510180000017060976141309028284_);" d="M90.42,51.98v-3.79l-11.46-0.91l-1.04,1.28
	c0,0,2.47,3.42,8.92,3.42L90.42,51.98z"/>
<radialGradient id="SVGID_00000078012880046284715450000009085261325204615553_" cx="-530.4567" cy="580.2794" r="1" gradientTransform="matrix(2.5143 1.1765 0.8728 -1.8653 902.5775 1751.5719)" gradientUnits="userSpaceOnUse">
	<stop  offset="0.6628" style="stop-color:#444140"/>
	<stop  offset="1" style="stop-color:#444140;stop-opacity:0"/>
</radialGradient>
<path style="fill:url(#SVGID_00000078012880046284715450000009085261325204615553_);" d="M77.95,46.91
	c1.72-2.61-2.09-3.58-2.09-3.58s0,0,0,0c0.66,0.82,0.96,1.54,0.58,2.25c-0.49,0.88-1.93,1.01-1.93,1.01S76.46,48.35,77.95,46.91z"/>
<path style="fill:#3C2B24;" d="M90,57.3c-1.97,0-3.57-1.52-3.57-3.4v-4.26h7.96v4.26c0,1.87-1.6,3.4-3.57,3.4H90z"/>
<path style="fill:#3C2B24;" d="M101.14,34.37H79.69c-2.31,0-4.21,2.02-4.21,4.48c0,2.46,1.89,4.48,4.21,4.48h21.45
	c2.31,0,4.21-2.02,4.21-4.48C105.35,36.39,103.44,34.37,101.14,34.37z"/>
<path style="fill:#70534A;" d="M90.37,18.53c-6.83,0-13.16,7.31-13.16,17.82c0,10.46,6.52,15.63,13.16,15.63s13.16-5.17,13.16-15.63
	C103.53,25.83,97.2,18.53,90.37,18.53z"/>
<path style="fill:#1A1717;" d="M83.96,40.05c1.07,0,1.93-0.9,1.93-2c0-1.1-0.86-2-1.93-2c-1.07,0-1.93,0.9-1.93,2
	C82.03,39.15,82.89,40.05,83.96,40.05z"/>
<path style="fill:#1A1717;" d="M96.87,40.05c1.07,0,1.93-0.9,1.93-2c0-1.1-0.86-2-1.93-2c-1.07,0-1.93,0.9-1.93,2
	C94.94,39.15,95.8,40.05,96.87,40.05z"/>
<path style="fill:#1A1717;" d="M93.63,45.21c-1.25,0.74-5.35,0.74-6.6,0c-0.72-0.43-1.45,0.23-1.15,0.88
	c0.29,0.64,2.53,2.13,4.46,2.13s4.14-1.49,4.43-2.13C95.07,45.43,94.35,44.78,93.63,45.21z"/>
<path style="fill:#33251F;" d="M91.66,41.6c-0.04-0.02-0.08-0.03-0.13-0.03h-2.77c-0.04,0.01-0.08,0.02-0.13,0.03
	c-0.25,0.1-0.39,0.36-0.27,0.64c0.12,0.28,0.67,1.06,1.79,1.06c1.11,0,1.67-0.78,1.79-1.06C92.05,41.96,91.91,41.7,91.66,41.6z"/>
<path style="fill:#232020;" d="M106.48,23.63c-0.98-1.48-3.17-3.47-5.14-3.6c-0.32-1.89-2.34-3.5-4.3-4.12
	c-5.31-1.68-8.76,0.2-10.62,1.22c-0.39,0.21-2.88,1.59-4.62,0.6c-1.09-0.62-1.07-2.3-1.07-2.3s-3.42,1.3-2.25,4.93
	c-1.17,0.05-2.72,0.54-3.53,2.19c-0.97,1.96-0.63,3.61-0.35,4.39C73.6,27.8,72.32,29.63,73.2,32c0.66,1.78,3.28,2.61,3.28,2.61
	c-0.18,3.21,0.42,5.19,0.73,5.99c0.06,0.14,0.25,0.13,0.29-0.02c0.4-1.59,1.75-7.14,1.62-8.1c0,0,4.55-0.9,8.89-4.1
	c0.88-0.65,1.84-1.2,2.86-1.61c5.45-2.17,6.59,1.53,6.59,1.53s3.78-0.73,4.92,4.52c0.43,1.97,0.72,5.11,0.96,7.32
	c0.02,0.16,0.23,0.19,0.29,0.05c0.38-0.87,1.14-2.61,1.33-4.38c0.06-0.62,1.74-1.44,2.46-4.12
	C108.38,28.12,107.19,24.7,106.48,23.63z"/>
<radialGradient id="SVGID_00000013884688282972133110000008384254473262684032_" cx="-844.116" cy="671.5252" r="1" gradientTransform="matrix(4.3965 13.5998 10.0907 -3.2621 -2967.3582 13701.2217)" gradientUnits="userSpaceOnUse">
	<stop  offset="0.6985" style="stop-color:#444140;stop-opacity:0"/>
	<stop  offset="1" style="stop-color:#444140"/>
</radialGradient>
<path style="fill:url(#SVGID_00000013884688282972133110000008384254473262684032_);" d="M104.94,35.82
	c0.06-0.62,1.74-1.45,2.46-4.12c0.08-0.28,0.14-0.57,0.2-0.86c0.59-3.25-0.47-6.23-1.12-7.21c-0.9-1.37-2.85-3.17-4.69-3.53
	c-0.16-0.02-0.32-0.04-0.47-0.05c0,0,0.13,0.86-0.22,1.55c-0.45,0.89-1.37,1.1-1.37,1.1C104.55,27.5,104.2,31.52,104.94,35.82z"/>
<radialGradient id="SVGID_00000135690304115343786300000016692049361867087546_" cx="-981.1008" cy="618.7972" r="1" gradientTransform="matrix(-10.804 -4.5438 -2.5536 6.0719 -8927.8408 -8193.2705)" gradientUnits="userSpaceOnUse">
	<stop  offset="0.6985" style="stop-color:#444140;stop-opacity:0"/>
	<stop  offset="1" style="stop-color:#444140"/>
</radialGradient>
<path style="fill:url(#SVGID_00000135690304115343786300000016692049361867087546_);" d="M96.49,15.75
	c2.94,0.79,4.37,2.29,4.85,4.28c0.14,0.59,0.31,6.05-10.12-0.16c-3.88-2.31-2.82-3.76-2.37-3.92C90.62,15.31,93.2,14.86,96.49,15.75
	z"/>
<radialGradient id="SVGID_00000140005575663299327450000008270675440410275474_" cx="-1048.0887" cy="642.4608" r="1" gradientTransform="matrix(-6.2301 -1.6761 -1.5685 5.8303 -5440.2456 -5477.687)" gradientUnits="userSpaceOnUse">
	<stop  offset="0.6605" style="stop-color:#444140;stop-opacity:0"/>
	<stop  offset="1" style="stop-color:#444140"/>
</radialGradient>
<path style="fill:url(#SVGID_00000140005575663299327450000008270675440410275474_);" d="M80.41,20.67l-1.93-0.31
	c-0.08,0-0.33,0.02-0.47,0.04c-1.09,0.15-2.37,0.71-3.06,2.15c-0.75,1.55-0.73,2.88-0.52,3.76c0.06,0.3,0.18,0.63,0.18,0.63
	s0.96-0.9,3.23-0.97L80.41,20.67z"/>
<radialGradient id="SVGID_00000132055278190614092190000008934666557856329116_" cx="-754.5388" cy="568.375" r="1" gradientTransform="matrix(6.7101 0.9232 1.2972 -9.4288 4405.9404 6086.6318)" gradientUnits="userSpaceOnUse">
	<stop  offset="0.5981" style="stop-color:#444140;stop-opacity:0"/>
	<stop  offset="1" style="stop-color:#444140"/>
</radialGradient>
<path style="fill:url(#SVGID_00000132055278190614092190000008934666557856329116_);" d="M74.51,27.02
	c-0.95,0.84-2.23,2.73-1.29,5.06c0.71,1.76,3.25,2.52,3.25,2.52c0,0.01,0.51,0.16,0.77,0.16l0.59-8.78c-1.21,0-2.38,0.36-3.14,0.89
	C74.71,26.88,74.51,27.01,74.51,27.02z"/>
<radialGradient id="SVGID_00000121276023079163616010000018002324231554622616_" cx="-634.8105" cy="466.9106" r="1" gradientTransform="matrix(3.4398 0 0 -3.4398 2265.8201 1624.7379)" gradientUnits="userSpaceOnUse">
	<stop  offset="0.7016" style="stop-color:#444140;stop-opacity:0"/>
	<stop  offset="1" style="stop-color:#444140"/>
</radialGradient>
<path style="fill:url(#SVGID_00000121276023079163616010000018002324231554622616_);" d="M80.72,15.43c-0.01,0-0.01,0.01-0.02,0.01
	c0,0,0,0,0,0c-0.37,0.16-3.31,1.52-2.21,4.92l3.12,0.5c-2.76-2.8-0.87-5.44-0.87-5.44S80.73,15.43,80.72,15.43z"/>
<linearGradient id="SVGID_00000111172903241239564400000011056122392630271886_" gradientUnits="userSpaceOnUse" x1="90.4102" y1="119.3388" x2="90.4102" y2="93.9613" gradientTransform="matrix(1 0 0 -1 0 130)">
	<stop  offset="0" style="stop-color:#504F4F"/>
	<stop  offset="1" style="stop-color:#212121"/>
</linearGradient>
<path style="fill:url(#SVGID_00000111172903241239564400000011056122392630271886_);" d="M105.99,5.34c-0.17-1-1.2-1.59-2.14-1.24
	c-2.22,0.82-5.98,2.63-7.88,5.93c-1.43,2.48-2.03,6.16-2.27,9.18c-0.09,1.1-1.04,1.92-2.14,1.84c-0.37-0.03-1.94-0.03-2.31,0
	c-1.1,0.08-2.06-0.73-2.14-1.84c-0.24-3.02-0.84-6.7-2.27-9.18c-1.9-3.31-5.68-5.11-7.89-5.93C76.01,3.75,75,4.34,74.83,5.33
	c-0.4,2.33-0.73,6.52,1.18,9.82c1.43,2.49,4.3,4.84,6.79,6.56c0.56,0.39,0.56,1.2,0.02,1.62c-1.01,0.77-1.77,1.67-2.36,2.57
	c-0.58,0.9,0.45,1.99,1.35,1.41c1.78-1.15,4.49-2.09,8.59-2.09s6.81,0.94,8.59,2.09c0.9,0.58,1.94-0.51,1.35-1.41
	c-0.59-0.91-1.35-1.8-2.35-2.58c-0.54-0.42-0.54-1.23,0.02-1.62c2.48-1.72,5.35-4.07,6.79-6.56
	C106.71,11.85,106.39,7.68,105.99,5.34z"/>
<path style="fill:#FF4081;" d="M98.31,11.77c-1.04,1.8-1.25,4.86-1.3,6.18c-0.01,0.29,0.29,0.47,0.54,0.31
	c1.12-0.7,3.65-2.41,4.69-4.22c0.91-1.58,0.83-3.54,0.68-4.63c-0.06-0.47-0.52-0.73-0.95-0.55C100.95,9.28,99.22,10.19,98.31,11.77z
	"/>
<path style="fill:#FF4081;" d="M82.5,11.77c1.04,1.8,1.26,4.86,1.3,6.19c0.01,0.29-0.29,0.47-0.53,0.31
	c-1.12-0.7-3.65-2.41-4.69-4.22c-0.91-1.58-0.83-3.54-0.69-4.63c0.06-0.47,0.52-0.73,0.95-0.55C79.85,9.28,81.59,10.19,82.5,11.77z"
	/>
<path style="fill:#1A1717;" d="M86.8,34.56c-0.37-0.49-1.22-1.2-2.87-1.2c-1.65,0-2.51,0.71-2.87,1.2
	c-0.16,0.22-0.12,0.47-0.01,0.62c0.1,0.14,0.41,0.27,0.76,0.15c0.34-0.12,1.01-0.46,2.13-0.47c1.12,0.01,1.79,0.35,2.13,0.47
	c0.34,0.12,0.65-0.01,0.76-0.15C86.92,35.02,86.96,34.77,86.8,34.56z"/>
<path style="fill:#1A1717;" d="M99.57,34.56c-0.37-0.49-1.22-1.2-2.87-1.2s-2.51,0.71-2.87,1.2c-0.16,0.22-0.12,0.47-0.01,0.62
	c0.1,0.14,0.41,0.27,0.76,0.15c0.34-0.12,1.01-0.46,2.13-0.47c1.12,0.01,1.79,0.35,2.13,0.47c0.34,0.12,0.65-0.01,0.76-0.15
	C99.69,35.02,99.73,34.77,99.57,34.56z"/>
<path style="fill:#C48E6A;" d="M20.11,75.4l2.33-2.38c0.17-0.12,1.1-0.14,1.29-0.08c0.06,0,0.45,0.69,0.51,0.7l0.9,0.16
	c0.38,0.09,0.63,0.48,0.54,0.87l-0.04,0.21c-0.08,0.39-0.46,0.64-0.84,0.55l-1.37-0.32l-2.38,1.68c-0.32,0.23-0.76,0.14-0.99-0.19
	l-0.12-0.18C19.71,76.07,19.79,75.62,20.11,75.4z"/>
<path style="fill:#504F4F;" d="M64.99,113.17c-0.56-2.43-3.24-5.12-5.87-7.72c-1.7-1.68-4.76-1.33-6.43,0.38
	c-1.67,1.71-1.97,4.78-0.27,6.46c2.63,2.6,5.36,5.24,7.79,5.76c1.91,0.41,3.5-0.2,4.07-0.78C64.85,116.68,65.43,115.08,64.99,113.17
	z"/>
<linearGradient id="SVGID_00000051356462788919273500000017234943212606100898_" gradientUnits="userSpaceOnUse" x1="30.5655" y1="25.291" x2="31.3097" y2="14.222" gradientTransform="matrix(1 0 0 -1 0 130)">
	<stop  offset="1.300000e-03" style="stop-color:#CCA47A"/>
	<stop  offset="0.4018" style="stop-color:#E0BB95"/>
</linearGradient>
<path style="fill:url(#SVGID_00000051356462788919273500000017234943212606100898_);" d="M35.45,123.82h-6.06l-3.28-19.28
	c0.65,1.7,2.3,2.91,4.24,2.91c2.5,0,4.53-2.02,4.54-4.51L35.45,123.82z"/>
<linearGradient id="SVGID_00000097465157065064947490000015854859286083958914_" gradientUnits="userSpaceOnUse" x1="52.0379" y1="32.4325" x2="53.1555" y2="15.8083" gradientTransform="matrix(1 0 0 -1 0 130)">
	<stop  offset="1.300000e-03" style="stop-color:#CCA47A"/>
	<stop  offset="0.4018" style="stop-color:#E0BB95"/>
</linearGradient>
<path style="fill:url(#SVGID_00000097465157065064947490000015854859286083958914_);" d="M59.71,113.47c-1,0.56-2.24,0.49-3.17-0.19
	l-12.15-10.64c-0.11-0.1-0.22-0.2-0.32-0.31c0.84,0.83,1.99,1.35,3.27,1.35c2.57,0,4.65-2.08,4.65-4.65c0-0.5-0.08-0.99-0.23-1.44
	c0.01,0.01,0.02,0.03,0.03,0.04l8.55,11.16C61.73,110.17,61.42,112.51,59.71,113.47z"/>
<linearGradient id="SVGID_00000114067417549413830290000013859375016453712772_" gradientUnits="userSpaceOnUse" x1="34.8678" y1="39.5825" x2="40.3562" y2="27.21" gradientTransform="matrix(1 0 0 -1 0 130)">
	<stop  offset="1.300000e-03" style="stop-color:#CCA47A"/>
	<stop  offset="0.4018" style="stop-color:#E0BB95"/>
</linearGradient>
<path style="fill:url(#SVGID_00000114067417549413830290000013859375016453712772_);" d="M51.99,99.03c0,2.57-2.08,4.65-4.65,4.65
	c-1.28,0-2.43-0.52-3.27-1.35c-0.13-0.13-0.25-0.26-0.36-0.4c-0.21-0.25-0.4-0.53-0.56-0.81l-6.83-12.65
	c-0.04-0.22-1.21-0.37-1.41-0.37s-0.37,0.16-0.41,0.37l0.39,14.34v0.13c-0.01,2.49-2.04,4.51-4.54,4.51c-1.94,0-3.59-1.21-4.24-2.91
	l-0.29-1.76l-3.43-20.16l11.34-8.03l12.7,8.02l4.67,13.7l0.1,0.29c0.14,0.35,0.32,0.69,0.56,0.99
	C51.91,98.04,51.99,98.53,51.99,99.03z"/>
<path style="fill:#C48E6A;" d="M49.04,75.14l-2.64-2.22c-0.17-0.12-0.72,0.24-0.91,0.29c-0.06,0-0.52,0.15-0.58,0.16l-0.9,0.16
	c-0.38,0.09-0.63,0.48-0.54,0.87l0.04,0.21c0.08,0.39,0.46,0.64,0.84,0.55l1.37-0.32l2.38,1.68c0.32,0.23,0.76,0.14,0.99-0.19
	l0.12-0.18C49.44,75.82,49.36,75.37,49.04,75.14z"/>
<path style="fill:#444444;" d="M52.92,60.34c0,0-2.07-7.41-19.04-7.41s-17.96,7.41-17.96,7.41l6.35,4.83h23.25L52.92,60.34z"/>
<linearGradient id="SVGID_00000105412991654776589290000009032896911105935290_" gradientUnits="userSpaceOnUse" x1="34.3901" y1="66.5149" x2="34.3901" y2="42.1134" gradientTransform="matrix(1 0 0 -1 0 130)">
	<stop  offset="0" style="stop-color:#515151"/>
	<stop  offset="0.9439" style="stop-color:#313131"/>
</linearGradient>
<path style="fill:url(#SVGID_00000105412991654776589290000009032896911105935290_);" d="M53.89,60.34c0,0-3.07-7.41-20.04-7.41
	s-18.96,7.41-18.96,7.41l7.42,6.89v15.42l9.74,6.43c0.77,0.39,1.62,0.59,2.48,0.59c0.89,0,1.77-0.22,2.56-0.63l9.31-6.39V67.23
	L53.89,60.34z"/>
<path style="fill:#AB872F;" d="M48.16,45.58c-0.5-0.91,0.14-1.84,1.23-2.99c1.73-1.82,3.61-6.04,1.86-10.33
	c0.01-0.02-0.34-0.75-0.33-0.77l-0.72-0.04c-0.23-0.03-8.13-0.05-16.03-0.05c-7.9,0-15.8,0.02-16.03,0.05c0,0-1.06,0.78-1.05,0.81
	c-1.75,4.29,0.13,8.51,1.86,10.33c1.09,1.15,1.73,2.07,1.23,2.99c-0.49,0.88-1.93,1.01-1.93,1.01s0.33,0.91,1.14,1.39
	c0.74,0.45,1.66,0.56,2.29,0.57c0,0,2.47,3.42,8.91,3.42l3.59,0l3.59,0c6.45,0,8.91-3.42,8.91-3.42c0.63-0.01,1.54-0.12,2.29-0.57
	c0.8-0.49,1.14-1.39,1.14-1.39S48.65,46.47,48.16,45.58z"/>
<radialGradient id="SVGID_00000162348337623095587610000014859288321772352397_" cx="-799.7244" cy="502.0576" r="1" gradientTransform="matrix(9.3938 0 0 -4.6142 7552.4658 2363.1162)" gradientUnits="userSpaceOnUse">
	<stop  offset="0.7275" style="stop-color:#BFA055;stop-opacity:0"/>
	<stop  offset="1" style="stop-color:#BFA055"/>
</radialGradient>
<path style="fill:url(#SVGID_00000162348337623095587610000014859288321772352397_);" d="M34.16,51.98v-3.79l11.46-0.91l1.04,1.28
	c0,0-2.47,3.42-8.92,3.42L34.16,51.98z"/>
<radialGradient id="SVGID_00000088090933464431282760000006827430423010332343_" cx="-1114.5018" cy="998.1049" r="1" gradientTransform="matrix(-2.5143 1.1765 0.8728 1.8653 -3624.0857 -505.405)" gradientUnits="userSpaceOnUse">
	<stop  offset="0.6628" style="stop-color:#BFA055"/>
	<stop  offset="1" style="stop-color:#BFA055;stop-opacity:0"/>
</radialGradient>
<path style="fill:url(#SVGID_00000088090933464431282760000006827430423010332343_);" d="M46.64,46.91
	c-1.72-2.61,2.09-3.58,2.09-3.58s0,0,0,0c-0.66,0.82-0.96,1.54-0.58,2.25c0.49,0.88,1.93,1.01,1.93,1.01S48.12,48.35,46.64,46.91z"
	/>
<radialGradient id="SVGID_00000105387546897000384100000006228489637948011177_" cx="-939.3223" cy="520.6634" r="1" gradientTransform="matrix(-0.9096 -12.1595 -10.1342 0.7581 4464.1216 -11779.1816)" gradientUnits="userSpaceOnUse">
	<stop  offset="0.7247" style="stop-color:#BFA055;stop-opacity:0"/>
	<stop  offset="1" style="stop-color:#BFA055"/>
</radialGradient>
<path style="fill:url(#SVGID_00000105387546897000384100000006228489637948011177_);" d="M51.26,32.27
	c1.7,4.15-0.09,8.43-1.77,10.23c-0.23,0.25-1.21,1.21-1.43,1.97c0,0-3.83-5.34-4.97-8.47c-0.23-0.63-0.44-1.28-0.47-1.96
	c-0.02-0.5,0.06-1.11,0.35-1.53c0.36-0.53,8.09-0.68,8.09-0.68C51.06,31.83,51.26,32.27,51.26,32.27z"/>
<radialGradient id="SVGID_00000045619820053471068660000000382999047351051680_" cx="-928.3709" cy="513.6896" r="1" gradientTransform="matrix(0.9096 -12.1595 -10.1342 -0.7581 6076.5806 -10861.8418)" gradientUnits="userSpaceOnUse">
	<stop  offset="0.7247" style="stop-color:#BFA055;stop-opacity:0"/>
	<stop  offset="1" style="stop-color:#BFA055"/>
</radialGradient>
<path style="fill:url(#SVGID_00000045619820053471068660000000382999047351051680_);" d="M17.08,32.27
	c-1.7,4.15,0.09,8.43,1.77,10.23c0.23,0.25,1.21,1.21,1.43,1.97c0,0,3.83-5.34,4.97-8.47c0.23-0.63,0.44-1.28,0.47-1.96
	c0.02-0.5-0.06-1.11-0.35-1.53c-0.36-0.53-0.77-0.39-1.38-0.39c-1.16,0-6.21-0.29-6.6-0.29C17.39,31.83,17.08,32.27,17.08,32.27z"/>
<radialGradient id="SVGID_00000107563698386955262420000011033419313917169794_" cx="-990.2756" cy="707.9424" r="1" gradientTransform="matrix(-9.3938 0 0 4.6142 -9274.126 -3220.1023)" gradientUnits="userSpaceOnUse">
	<stop  offset="0.7275" style="stop-color:#BFA055;stop-opacity:0"/>
	<stop  offset="1" style="stop-color:#BFA055"/>
</radialGradient>
<path style="fill:url(#SVGID_00000107563698386955262420000011033419313917169794_);" d="M34.18,51.98v-3.79l-11.46-0.91l-1.04,1.28
	c0,0,2.47,3.42,8.91,3.42L34.18,51.98z"/>
<radialGradient id="SVGID_00000181080266342737480270000010766055723184495550_" cx="-530.4567" cy="580.2794" r="1" gradientTransform="matrix(2.5143 1.1765 0.8728 -1.8653 846.3354 1751.573)" gradientUnits="userSpaceOnUse">
	<stop  offset="0.6628" style="stop-color:#BFA055"/>
	<stop  offset="1" style="stop-color:#BFA055;stop-opacity:0"/>
</radialGradient>
<path style="fill:url(#SVGID_00000181080266342737480270000010766055723184495550_);" d="M21.7,46.91c1.72-2.61-2.09-3.58-2.09-3.58
	s0,0,0,0c0.66,0.82,0.96,1.54,0.57,2.25c-0.48,0.88-1.93,1.01-1.93,1.01S20.22,48.35,21.7,46.91z"/>
<linearGradient id="SVGID_00000082368161223147145870000006624477095022141074_" gradientUnits="userSpaceOnUse" x1="44.3347" y1="63.9258" x2="54.0091" y2="52.577" gradientTransform="matrix(1 0 0 -1 0 130)">
	<stop  offset="1.300000e-03" style="stop-color:#CCA47A"/>
	<stop  offset="0.4018" style="stop-color:#E0BB95"/>
</linearGradient>
<path style="fill:url(#SVGID_00000082368161223147145870000006624477095022141074_);" d="M59.86,69.01l-7.39-9.77l-6.18,4.36
	l7.42,6.95l-5.19,4.31c-0.54-0.02-1.47-0.16-2.66-0.16h-0.39l-0.02-0.01c0,0-1.67,0.12-2.11,0.46c-0.4,0.31-0.36,0.85-0.18,1.05
	c0.21,0.24,0.16,0.66-0.05,0.89c-0.21,0.24-0.34,0.53-0.32,0.83c0.02,0.29,0.15,0.46,0.44,0.68c0.14,0.1,0.21,0.38,0.14,0.53
	c-0.12,0.24-0.31,0.65-0.27,0.87c0.09,0.43,0.53,0.52,0.63,0.85c0.04,0.13-0.37,0.57,0.05,0.94c0.39,0.35,1.06,0.63,2.08,0.63
	c0.91,0,2.1-0.22,3.61-0.82c0.04-0.02,10.39-8.44,10.39-8.44C60.91,72.05,60.86,70.17,59.86,69.01z"/>
<linearGradient id="SVGID_00000127748124182059977010000008539042280629337789_" gradientUnits="userSpaceOnUse" x1="24.8779" y1="63.3221" x2="14.4606" y2="52.9048" gradientTransform="matrix(1 0 0 -1 0 130)">
	<stop  offset="1.300000e-03" style="stop-color:#CCA47A"/>
	<stop  offset="0.4018" style="stop-color:#E0BB95"/>
</linearGradient>
<path style="fill:url(#SVGID_00000127748124182059977010000008539042280629337789_);" d="M26.37,77.94c0.02-0.3-0.11-0.59-0.32-0.83
	c-0.21-0.24-0.26-0.66-0.05-0.89c0.18-0.2,0.21-0.75-0.18-1.05c-0.44-0.34-2.11-0.46-2.11-0.46l-0.02,0.01H23.3
	c-1.19,0-2.12,0.13-2.66,0.16l-5.19-4.31l7.42-6.95l-6.19-4.38L9.3,69.03c-1,1.15-1.05,3.04,0,4.15c0,0,10.35,8.42,10.39,8.44
	c1.51,0.59,2.7,0.82,3.61,0.82c1.01,0,1.69-0.28,2.08-0.63c0.42-0.38,0.01-0.81,0.05-0.94c0.1-0.33,0.53-0.42,0.63-0.85
	c0.05-0.21-0.15-0.63-0.27-0.87c-0.08-0.15,0-0.43,0.14-0.53C26.22,78.4,26.35,78.23,26.37,77.94z"/>
<linearGradient id="SVGID_00000099648767665943867940000012210374617703705495_" gradientUnits="userSpaceOnUse" x1="34.4202" y1="66.5149" x2="34.4202" y2="42.1135" gradientTransform="matrix(1 0 0 -1 0 130)">
	<stop  offset="0" style="stop-color:#515151"/>
	<stop  offset="0.9439" style="stop-color:#313131"/>
</linearGradient>
<path style="fill:url(#SVGID_00000099648767665943867940000012210374617703705495_);" d="M53.92,60.34c0,0-3.07-7.41-20.04-7.41
	s-18.96,7.41-18.96,7.41l7.35,6.83h24.25L53.92,60.34z"/>
<path style="fill:#E0BB95;" d="M44.91,54.35c-0.09,3-3.82,7.22-10.5,7.22c-6.76,0-10.5-4.33-10.5-7.33c0-0.05,0-0.1,0.01-0.15
	c2.48-0.7,5.72-1.16,9.96-1.16C38.63,52.93,42.22,53.51,44.91,54.35z"/>
<path style="fill:#504F4F;" d="M32.14,124h-4.38c-0.81-0.02-1.39-0.95-1.15-1.75c0.73-2.46,2.95-4.27,5.53-4.27
	c2.64,0,4.89,1.88,5.57,4.41c0.22,0.81-0.38,1.61-1.19,1.61H32.14z"/>
<path style="fill:#C48E6A;" d="M33.96,57.3c-1.97,0-3.57-1.52-3.57-3.4v-4.26h7.96v4.26c0,1.87-1.6,3.4-3.57,3.4H33.96z"/>
<path style="fill:#C48E6A;" d="M45.1,34.37H23.65c-2.31,0-4.21,2.02-4.21,4.48c0,2.46,1.89,4.48,4.21,4.48H45.1
	c2.31,0,4.21-2.02,4.21-4.48C49.31,36.39,47.41,34.37,45.1,34.37z"/>
<path style="fill:#E0BB95;" d="M34.33,18.53c-6.83,0-13.16,7.31-13.16,17.82c0,10.46,6.52,15.63,13.16,15.63s13.16-5.17,13.16-15.63
	C47.49,25.83,41.16,18.53,34.33,18.53z"/>
<path style="fill:#5D4037;" d="M27.92,40.05c1.07,0,1.93-0.9,1.93-2c0-1.1-0.86-2-1.93-2c-1.07,0-1.93,0.9-1.93,2
	C25.99,39.15,26.85,40.05,27.92,40.05z"/>
<path style="fill:#5D4037;" d="M40.83,40.05c1.07,0,1.93-0.9,1.93-2c0-1.1-0.86-2-1.93-2s-1.93,0.9-1.93,2
	C38.9,39.15,39.76,40.05,40.83,40.05z"/>
<path style="fill:#6D4C41;" d="M37.59,45.21c-1.25,0.74-5.35,0.74-6.6,0c-0.72-0.43-1.45,0.23-1.15,0.88
	c0.29,0.64,2.53,2.13,4.46,2.13s4.14-1.49,4.43-2.13C39.03,45.43,38.31,44.78,37.59,45.21z"/>
<path style="fill:#C48E6A;" d="M35.62,41.6c-0.04-0.02-0.08-0.03-0.13-0.03h-2.77c-0.04,0.01-0.08,0.02-0.13,0.03
	c-0.25,0.1-0.39,0.36-0.27,0.64c0.12,0.28,0.67,1.06,1.79,1.06c1.11,0,1.67-0.78,1.79-1.06C36.01,41.96,35.87,41.7,35.62,41.6z"/>
<path style="fill:#AB872F;" d="M50.24,23.63c-0.98-1.48-3.17-3.47-5.14-3.6c-0.32-1.89-2.34-3.5-4.3-4.12
	c-5.31-1.68-8.76,0.2-10.62,1.22c-0.39,0.21-2.88,1.59-4.62,0.6c-1.09-0.62-1.07-2.3-1.07-2.3s-3.42,1.3-2.25,4.93
	c-1.17,0.05-2.72,0.54-3.53,2.19c-0.97,1.96-0.63,3.61-0.34,4.39c-1.01,0.86-2.28,2.68-1.41,5.06c0.66,1.78,3.28,2.61,3.28,2.61
	c-0.18,3.21,0.42,5.19,0.73,5.99c0.06,0.14,0.25,0.13,0.29-0.02c0.4-1.59,1.75-7.14,1.62-8.1c0,0,4.55-0.9,8.89-4.1
	c0.88-0.65,1.84-1.2,2.86-1.61c5.45-2.17,6.59,1.53,6.59,1.53s3.78-0.73,4.92,4.52c0.43,1.97,0.72,5.11,0.96,7.32
	c0.02,0.16,0.23,0.19,0.29,0.05c0.38-0.87,1.14-2.61,1.33-4.38c0.06-0.62,1.74-1.44,2.46-4.12C52.13,28.12,50.95,24.7,50.24,23.63z"
	/>
<radialGradient id="SVGID_00000140703088979389577650000016284056042230133941_" cx="-844.116" cy="671.5252" r="1" gradientTransform="matrix(4.3965 13.5998 10.0907 -3.2621 -3023.6028 13701.2227)" gradientUnits="userSpaceOnUse">
	<stop  offset="0.6985" style="stop-color:#BFA055;stop-opacity:0"/>
	<stop  offset="1" style="stop-color:#BFA055"/>
</radialGradient>
<path style="fill:url(#SVGID_00000140703088979389577650000016284056042230133941_);" d="M48.69,35.82
	c0.06-0.62,1.74-1.45,2.46-4.12c0.08-0.28,0.14-0.57,0.2-0.86c0.58-3.25-0.47-6.23-1.12-7.21c-0.91-1.37-2.85-3.17-4.69-3.53
	c-0.16-0.02-0.32-0.04-0.47-0.05c0,0,0.13,0.86-0.22,1.55c-0.45,0.89-1.37,1.1-1.37,1.1C48.3,27.5,47.96,31.52,48.69,35.82z"/>
<radialGradient id="SVGID_00000158722798849393844000000009425552004988700833_" cx="-981.1008" cy="618.7972" r="1" gradientTransform="matrix(-10.804 -4.5438 -2.5536 6.0719 -8983.9111 -8193.2002)" gradientUnits="userSpaceOnUse">
	<stop  offset="0.6985" style="stop-color:#BFA055;stop-opacity:0"/>
	<stop  offset="1" style="stop-color:#BFA055"/>
</radialGradient>
<path style="fill:url(#SVGID_00000158722798849393844000000009425552004988700833_);" d="M40.24,15.75
	c2.94,0.79,4.37,2.29,4.85,4.28c0.14,0.59,0.31,6.05-10.12-0.16c-3.88-2.31-2.82-3.76-2.37-3.92
	C34.38,15.31,36.96,14.86,40.24,15.75z"/>
<radialGradient id="SVGID_00000075851354905994409820000009306491095630209188_" cx="-634.8105" cy="492.1174" r="1" gradientTransform="matrix(3.4398 0 0 -4.2079 2209.5752 2089.4451)" gradientUnits="userSpaceOnUse">
	<stop  offset="0.7016" style="stop-color:#BFA055;stop-opacity:0"/>
	<stop  offset="1" style="stop-color:#BFA055"/>
</radialGradient>
<path style="fill:url(#SVGID_00000075851354905994409820000009306491095630209188_);" d="M24.48,15.43c-0.01,0-0.01,0.01-0.02,0.01
	c0,0,0,0,0,0c-0.37,0.16-3.31,1.52-2.21,4.92l3.12,0.5c-2.76-2.8-0.87-5.44-0.87-5.44S24.48,15.43,24.48,15.43z"/>
<radialGradient id="SVGID_00000047777587335709446510000010713451627165143954_" cx="-1048.0887" cy="642.4608" r="1" gradientTransform="matrix(-6.2301 -1.6761 -1.5685 5.8303 -5496.4878 -5477.689)" gradientUnits="userSpaceOnUse">
	<stop  offset="0.6605" style="stop-color:#BFA055;stop-opacity:0"/>
	<stop  offset="1" style="stop-color:#BFA055"/>
</radialGradient>
<path style="fill:url(#SVGID_00000047777587335709446510000010713451627165143954_);" d="M24.17,20.67l-1.93-0.31
	c-0.07,0-0.33,0.02-0.47,0.04c-1.09,0.15-2.37,0.71-3.06,2.15c-0.74,1.55-0.73,2.88-0.52,3.76c0.06,0.3,0.18,0.63,0.18,0.63
	s0.96-0.9,3.23-0.97L24.17,20.67z"/>
<radialGradient id="SVGID_00000030457748395635451160000009920338946703389571_" cx="-754.5388" cy="568.375" r="1" gradientTransform="matrix(6.7101 0.9232 1.2972 -9.4288 4349.6934 6086.6318)" gradientUnits="userSpaceOnUse">
	<stop  offset="0.5981" style="stop-color:#BFA055;stop-opacity:0"/>
	<stop  offset="1" style="stop-color:#BFA055"/>
</radialGradient>
<path style="fill:url(#SVGID_00000030457748395635451160000009920338946703389571_);" d="M18.27,27.02
	c-0.95,0.84-2.23,2.73-1.29,5.06c0.71,1.76,3.25,2.52,3.25,2.52c0,0.01,0.51,0.16,0.77,0.16l0.59-8.78c-1.22,0-2.38,0.36-3.14,0.89
	C18.46,26.88,18.27,27.01,18.27,27.02z"/>
<linearGradient id="SVGID_00000127736207249167575740000010727786954293231801_" gradientUnits="userSpaceOnUse" x1="34.3714" y1="113.2835" x2="34.3714" y2="99.5344" gradientTransform="matrix(1 0 0 -1 0 130)">
	<stop  offset="0" style="stop-color:#504F4F"/>
	<stop  offset="1" style="stop-color:#212121"/>
</linearGradient>
<path style="fill:url(#SVGID_00000127736207249167575740000010727786954293231801_);" d="M49.95,5.34c-0.17-1-1.2-1.59-2.14-1.24
	c-2.22,0.82-5.98,2.63-7.88,5.93c-1.43,2.48-2.03,6.16-2.27,9.18c-0.09,1.1-1.04,1.92-2.14,1.84c-0.37-0.03-1.94-0.03-2.31,0
	c-1.1,0.08-2.06-0.73-2.14-1.84c-0.24-3.02-0.84-6.7-2.27-9.18c-1.9-3.31-5.68-5.11-7.89-5.93c-0.94-0.35-1.95,0.24-2.12,1.23
	c-0.4,2.33-0.73,6.52,1.18,9.82c1.43,2.49,4.3,4.84,6.79,6.56c0.56,0.39,0.56,1.2,0.02,1.62c-1.01,0.77-1.77,1.67-2.36,2.57
	c-0.58,0.9,0.45,1.99,1.35,1.41c1.78-1.15,4.49-2.09,8.59-2.09s6.81,0.94,8.59,2.09c0.9,0.58,1.94-0.51,1.35-1.41
	c-0.59-0.91-1.35-1.8-2.35-2.58c-0.54-0.42-0.54-1.23,0.02-1.62c2.48-1.72,5.35-4.07,6.79-6.56C50.67,11.85,50.35,7.68,49.95,5.34z"
	/>
<path style="fill:#FF4081;" d="M42.27,11.77c-1.04,1.8-1.25,4.86-1.3,6.18c-0.01,0.29,0.29,0.47,0.54,0.31
	c1.12-0.7,3.65-2.41,4.69-4.22c0.91-1.58,0.83-3.54,0.68-4.63c-0.06-0.47-0.52-0.73-0.95-0.55C44.91,9.28,43.18,10.19,42.27,11.77z"
	/>
<path style="fill:#FF4081;" d="M26.46,11.77c1.04,1.8,1.26,4.86,1.3,6.19c0.01,0.29-0.29,0.47-0.53,0.31
	c-1.12-0.7-3.65-2.41-4.69-4.22c-0.91-1.58-0.83-3.54-0.69-4.63c0.06-0.47,0.52-0.73,0.95-0.55C23.81,9.28,25.55,10.19,26.46,11.77z
	"/>
<path style="fill:#AB872F;" d="M30.89,34.56c-0.37-0.49-1.22-1.2-2.87-1.2s-2.51,0.71-2.87,1.2c-0.16,0.22-0.12,0.47-0.01,0.62
	c0.1,0.14,0.41,0.27,0.76,0.15c0.34-0.12,1.01-0.46,2.13-0.47c1.12,0.01,1.79,0.35,2.13,0.47s0.65-0.01,0.76-0.15
	C31.01,35.02,31.05,34.77,30.89,34.56z"/>
<path style="fill:#AB872F;" d="M43.66,34.56c-0.37-0.49-1.22-1.2-2.87-1.2c-1.65,0-2.51,0.71-2.87,1.2
	c-0.16,0.22-0.12,0.47-0.01,0.62c0.1,0.14,0.41,0.27,0.76,0.15c0.34-0.12,1.01-0.46,2.13-0.47c1.12,0.01,1.79,0.35,2.13,0.47
	s0.65-0.01,0.76-0.15C43.78,35.02,43.82,34.77,43.66,34.56z"/>
</svg>
