<?xml version="1.0" encoding="utf-8"?>
<!-- Generator: Adobe Illustrator 26.3.1, SVG Export Plug-In . SVG Version: 6.00 Build 0)  -->
<svg version="1.1" id="Trombone" xmlns="http://www.w3.org/2000/svg" xmlns:xlink="http://www.w3.org/1999/xlink" x="0px" y="0px"
	 viewBox="0 0 128 128" style="enable-background:new 0 0 128 128;" xml:space="preserve">
<path style="fill:#616161;" d="M80.15,40.8c0,0-0.57-1.2,0.28-2.2s2.62-2.13,2.76-3.19s-0.81-3.38,0.35-4.82
	c1.49-1.84,5.53-1.06,9,2.84s4.33,7.09,2.62,8.72s-4.04,0.21-4.75,0.71s-2.69,2.48-3.4,2.84s-2.48,0-2.48,0l-4.39-4.89L80.15,40.8z"
	/>
<path style="fill:#FFA726;" d="M113.73,26.1c0,0-94.56,86.52-96.29,88.13s-4.04,4-5.93,1.76s1.12-4.36,3.06-6.13
	s70.58-64.13,70.58-64.13s-0.43-1.83-1.83-3.35s-3.27-1.91-3.27-1.91s-67.59,61.56-69.85,63.81s-9.78,8.34-3.47,16.24
	c5.8,7.26,13.76,0.43,16.24-1.97c2-1.94,94.69-85.95,95.31-86.58s3.3-4.59,1.16-6.27s-3.62-1.28-5.7,0.4L113.73,26.1z"/>
<path style="fill:#FFCA26;" d="M76.28,49.06c-0.75,0.48-4.96,4.29-5.53,4.96s0.23,1.24,1.18,1.02s12.01-1.69,12.01-1.69l7.64-7.01
	C91.58,46.34,76.89,48.66,76.28,49.06L76.28,49.06z"/>
<path style="fill:#FFCA26;" d="M104.88,35.15c0.74,0.56,6.39-4.57,5.77-5.42c-0.98-1.34-13.37-14.77-13.37-14.77l-5.7,5.49
	C91.58,20.45,103.47,34.1,104.88,35.15z"/>
<path style="fill:#DE7F14;" d="M64.97,65.86c0,0,2.14-1.7,3.65-3.09s2.08-3.4,0.06-5.79s-3.46-3.72-3.46-3.72l-2.27,13.41l2.02-0.82
	V65.86z"/>
<path style="fill:#DE7F14;" d="M84.93,56.98c-2.06-2.29-3.78-3.09-5.04-1.95s-3.27,2.65-3.72,3.4s-0.13,1.89-0.13,1.89
	s1.39,0.63,2.71,2.08s2.27,3.65,2.27,3.65s1.45,0.5,2.71-0.57s2.28-2,2.96-2.71C87.95,61.45,87.26,59.56,84.93,56.98z"/>
<path style="fill:#FFCA26;" d="M116.88,28.2c1.16,1.37,1.84,3.26,1.84,3.26s2.08-1.79,3.61-4.67c1.53-2.89,3.6-9.59-3.32-16.77
	s-15.18-7.73-21.42-2.71c-7.17,5.77-19.93,18.16-22.5,20.2s-14.64,10.03-28.6,10.3s-19.93-4.88-24.81-2.58
	c-3.9,1.84-3.66,12.88,12.47,31.04s26.33,21.86,29.69,18.71c4.47-4.2-1.36-18.98,2.44-29.55c2.91-8.11,6.91-15.59,14.23-22.77
	s19.93-19.52,22.77-20.47s7.13-1.38,10.71,2.44c6.1,6.51-0.26,11.47-0.26,11.47s1.79,0.5,3.15,2.11V28.2z"/>
<path style="fill:#FFF7C3;" d="M35.89,40.41c-1.28,1.51,1.69,3.87,3.51,5.32s4.88,3.26,7.74,2.66
	c13.98-2.94,25.76-14.83,26.25-15.57s-0.21-1.86-1.2-1.49s-8.21,7.06-21.63,8.88C42.92,41.25,36.72,39.41,35.89,40.41L35.89,40.41z"
	/>
<path style="fill:#DD7342;" d="M23.79,41.77c-2.28,1.79,4.57,12.28,13.05,22.47S56.98,83.86,59.14,82s-6.72-14.64-15.27-24.24
	S26.24,39.83,23.79,41.77z"/>
</svg>
