<?xml version="1.0" encoding="utf-8"?>
<!-- Generator: Adobe Illustrator 26.3.1, SVG Export Plug-In . SVG Version: 6.00 Build 0)  -->
<svg version="1.1" id="Bigfoot" xmlns="http://www.w3.org/2000/svg" xmlns:xlink="http://www.w3.org/1999/xlink" x="0px" y="0px"
	 viewBox="0 0 128 128" style="enable-background:new 0 0 128 128;" xml:space="preserve">
<path style="fill:#B8885A;" d="M26.66,120.32c-1.35,0.45-1.89,0.95-1.89,2.02s1.39,1.96,3.16,1.77s2.59-0.38,3.72-0.38
	s2.46,0.38,4.54,0.38s2.84-0.63,5.74-0.63s6.63,0.38,8.65,0.25s4.61-1.45,4.48-3.98s-0.82-4.36-1.14-5.36s-0.44-5.05-0.44-5.05
	l-12.31,0.57c0,0,0.06,2.84-0.38,3.79s-1.33,1.33-1.96,1.58s-5.68,2.46-6.69,2.78S27.6,120.02,26.66,120.32L26.66,120.32z"/>
<path style="fill:#B8885A;" d="M86.68,107.63c0,0-0.19,2.08-0.44,3.53s-0.44,3.47-1.51,4.42s-3.47,1.39-4.1,1.83
	s-0.82,1.01-0.82,1.01s-1.61,0.41-1.65,1.61s1.06,2.26,3,2.36s2.36-0.42,2.93-0.42s4.38,0.46,6.25-0.39s2.72-3.21,3.07-4.16
	s0.92-2.72,1.76-3.32s2.75-1.59,4.16-3.99s1.55-4.2-0.25-5.61s-6.53-4.34-6.53-4.34l-7.13,5.72
	C85.42,105.88,86.68,107.63,86.68,107.63z"/>
<path style="fill:#B8885A;" d="M93.56,64.96c0,0,0.71,1.43,2.52,2.85c1.55,1.22,3.51,2.14,4.94,2.03s3.9-1.48,4.28-3.9
	c0.35-2.2,0.93-5.16-0.71-6.26c-1.87-1.25-8.62-0.6-8.62-0.6l-2.41,5.87L93.56,64.96z"/>
<path style="fill:#B8885A;" d="M26.55,56.18c0,0-3.46,2.58-4.34,4.66s-0.77,3.9,0.99,5.71c1.6,1.65,4.23,2.25,5.65,1.15
	s2.69-4.66,2.36-6.31s-2.96-6.09-2.96-6.09S26.55,56.18,26.55,56.18z"/>
<path style="fill:#52362D;" d="M39.73,105.74c0,0-0.06,3.88,0.05,5.38c0.07,0.92,0.67,1.79,1.87,1.73c1.59-0.08,2.02-1.68,2.02-1.68
	s-0.05,3.07,2.5,3.03s4.23-3.36,4.23-3.36s0.67,1.54,2.26,1.49s2.55-1.58,2.88-2.88s0.48-2.21,1.01-3.27s2.26-4.27,1.87-7.83
	s-1.1-5.76-0.91-6.53s2.65-1.65,4.8-2.79c2.55-1.34,3.41-3.17,3.84-2.98s1.63,4.56,2.11,5.81s0.77,3.17,1.82,3.89
	s2.35,0.48,2.35,0.48s0.59,2.26,2.11,3.17c0.96,0.58,2.11,0.34,2.11,0.34s1.34,1.92,3.17,3.75s4.08,3.6,4.08,3.6l5.95-7.16
	l-6.77-12.34l1.54-14.45c0,0,1.34-1.39,2.26-3.22s0.86-3.07,0.86-3.07l-16.23-1.2L47.16,83.08l-7.44,22.67L39.73,105.74z"/>
<path style="fill:#6D4C40;" d="M40.84,85.14c-0.55,2.47-0.29,5.47-0.29,7.49s-0.62,6.43-0.77,8.79s-0.05,4.32-0.05,4.32
	s1.92,0.91,3.51-0.67s3.17-5.62,3.75-7.59s1.97-3.84,2.02-4.99s-0.38-1.87,0.1-3.17s1.49-2.5,2.74-2.98s13.21-5.28,19.45-8.31
	s15.61-8.6,16.47-11.19s-0.91-7.02-1.97-8.64c-0.74-1.14-5.67-5.71-5.67-5.71l-1.87-1.73l1.34-1.34c0,0,1.34,0.24,1.82,0.29
	l0.96,0.1c0,0,1.2,2.21,2.55,4.23s2.45,2.55,3.17,3.7s2.06,4.03,3.03,5.71s2.4,2.75,5.81,1.45s3.86-5.13,2.07-9.74
	c-1.61-4.16-3.65-8.42-5-10.72s-3.31-4.37-3.31-4.37L76.87,29.22L64.53,16.54l-3.03-4.23c0,0-3.81-5.2-7.07-7.12
	s-7.28-1.65-9.39,0.08c-1.55,1.27-2.29,2.37-3.12,4.81c-0.48,1.42-0.5,3.81-0.5,3.81l5.22,12.89l-2.47,8.01l0.05,2.5
	c0,0-1.97,2.4-3.03,4.47s-1.34,3.51-1.34,3.51l-3.75,5.28l-9.99,5.91c0,0,0.58,3.84,2.55,5.23s7.4-1.54,7.4-1.54
	s1.56,0.12,2.71-0.26s2.6-1.43,2.6-1.43l4.1-7.24l4.18,2.79c0,0,0.48,2.35,1.2,4.18s2.93,5.57,3.84,6.1s1.63,0.77,1.44,1.3
	s-2.88,2.59-5.52,6.05s-5.09,7.54-5.62,8.26s-3.6,2.93-4.13,5.28L40.84,85.14z"/>
<path style="fill:#6E4B41;" d="M82.47,75.23c0,0-0.19,4.93-0.9,7.82s-1.99,8.07-1.99,8.07s2.75,2.04,2.65,3.44s-0.63,1.89-0.7,2.3
	s1.78,3.6,2.2,6.25s0.18,3.97,0.18,3.97s3.03,3.12,5.96,1.72s2.86-5.59,2.86-5.59s2.06,0.87,3.07-0.21s0.16-3.07-1.36-5.45
	c-1.75-2.72-2.95-6.51-4.61-8.28c-2.1-2.23-5.1-3.07-5.03-4.16c0.08-1.26,0.77-2.93,0.77-5.83s-0.95-6.17-0.95-6.17
	s-0.82,0.9-1.15,1.21c-0.49,0.45-1.02,0.89-1.02,0.89L82.47,75.23z"/>
<path style="fill:#865C51;" d="M39.93,44.91c0,0-5.54,3.89-7.03,5.03s-5.21,3.25-6.31,4.7c-0.6,0.79-0.49,1.78-0.49,1.78
	s0.65,0.57,2.49,0.41s4.7-1.73,5.65-2.23s2.08-1.29,2.08-1.29s0.47,0.47,1.25,0.31s1.61-1.72,1.92-3.06
	c0.59-2.51,0.44-5.66,0.44-5.66L39.93,44.91z"/>
<path style="fill:#865C51;" d="M44.15,34.77c0,0-0.11-2.9,0.4-4.55s1.73-2.27,1.73-2.27s0.27,3.84,0.27,4.67
	c0,1.15-0.67,1.69-1.18,1.96s-1.22,0.2-1.22,0.2V34.77z"/>
<path style="fill:#865C51;" d="M61.49,12.29c0,0,0.11,2.67,1.17,4.91s2.2,3.88,3.14,4.23s1.61,0.16,1.92,0.55s0,7.17,1.37,10.7
	s3.45,6.31,5.57,6.27c1.85-0.03,1.8-1.76,2.2-1.76s1.76,0.65,4.19,0.72c2.68,0.08,4.28-0.53,4.59,0.02s-0.12,1.73-0.16,3.02
	s0.12,4.63,0.31,5.65s2.04,5.76,2.67,6.51s2.12,1.1,2.39-0.08s-0.31-3.45,0.12-3.69s0.86,0.78,1.65,0.67s1.25-1.37,1.1-2.82
	s-1.02-4.59-1.37-5.29s-0.78-1.41-0.78-1.41s0.9-0.78-0.35-2.74s-4.31-5.06-6.59-6.94s-5.96-4.16-5.96-4.16s-1.49-3.14-4.63-5.68
	s-6.39-3.1-6.39-3.1s-0.86-2.12-2.51-3.29S61.5,12.3,61.5,12.3L61.49,12.29z"/>
<path style="fill:#52362D;" d="M53.06,41.02c-0.96,0.43-0.63,1.96-0.21,3.26s1.43,3.73,2.46,4s1.54-0.56,1.54-0.56
	s0.91,1.02,3.26,1.58s3.75-0.46,3.51-1.93s-2.6-1.72-3.65-2.07s-3.12-1.3-3.96-2.07S54.08,40.56,53.06,41.02z"/>
<path style="fill:#52362D;" d="M79.59,49.41c0,0-3.09-1.09-5.93-2.74s-5.96-4.56-6.91-4.49s-0.84,1.26-0.56,2.39s0.7,2.28,1.47,2.18
	s0.6-0.77,0.95-0.77s0.48,3.02,2.06,4.28s2.54,0.49,2.54,0.49s0.81,1.68,2.67,2.84s3.58,2.14,5.4,3.05s2.48,1.11,3.3,1.33
	c0.7,0.19,1.1,0.13,1.1,0.13c-0.2-0.37-0.75-1.37-1.87-2.69c-1.01-1.2-2.48-2.62-3.05-3.44c-0.81-1.17-1.15-2.55-1.15-2.55
	L79.59,49.41z"/>
<path style="fill:#52362D;" d="M41.1,58.61c0,0-0.56-4.64,1.23-10.43s2.77-6.39,3.3-6.81s1.26-0.6,1.61-0.07s-0.41,3.27-0.25,4.84
	s1.72,2.32,1.96,2.67s0.67,5.17,0.67,5.17s-0.93,1.73-2.87,2.17c-1.34,0.3-1.94-0.29-1.94-0.29s-0.8,0.86-1.79,1.59
	s-1.93,1.17-1.93,1.17L41.1,58.61z"/>
<path style="fill:#52362D;" d="M45.57,8.43c-2.17,0.59-4.22,3.31-4.18,5.84s0.46,5.96,0.91,7.41s1.08,3.19,1.74,3.73
	s1.74,0.29,1.74,0.29s-0.08,3.56,1.61,6.17s4.64,4.72,9.4,3.27s7.62-6,8.32-7.62s0.62-3.68-0.95-4.06s-1.57,1.04-3.02,0
	s0-3.77-1.24-4.72s-1.66,0.99-2.73,0.08s-0.33-3.23-1.78-5.92c-1.36-2.53-5.55-5.63-9.81-4.47L45.57,8.43z"/>
<path style="fill:#B99277;" d="M50.88,20.02c-4.45,1.54-5.03,4.06-4.66,5.15s1.2,0.86,1.2,0.86s-0.15,2.55,0.86,3.53
	s1.88,0.34,1.88,0.34s0.11,3.13,2.25,3.16c3.27,0.04,2.71-4.51,2.71-4.51s1.14,0.27,1.8-0.53c1.16-1.39-0.08-4.25-0.08-4.25
	s0.68-0.38,0.68-1.31s-1.77-4.13-6.65-2.44H50.88z"/>
<path style="fill:#B6895A;" d="M49.72,18.55c-1.32,0.4-1.92,2.59-1.73,3.01s1.56,0.77,2.71,0.45c1.5-0.41,2.18-1.31,2.1-1.95
	s-1.95-1.84-3.08-1.5V18.55z"/>
<path style="fill:#B6895A;" d="M46.86,10.62c-1.32,0.31-1.2,3.08-1.69,3.83s-1.88,1.73-1.43,3.08s2.14,1.39,5.56,0.26
	s4.7-1.69,4.55-3.34c-0.17-1.85-2.18-1.35-3.53-2.03C49.46,11.99,48.29,10.28,46.86,10.62z"/>
<path style="fill:#51362D;" d="M48.72,25.77c1.13,0.89,1.71-0.96,3.13-1.35s2.67,0.48,3.05-0.55s-1.47-1.95-3.73-1.42
	C49.13,22.93,47.89,25.12,48.72,25.77z"/>
<path style="fill:#52362D;" d="M27.98,58.35c-0.6,0-0.84,0.66-0.84,1.63c0,1.24-0.09,1.78-0.53,2.36s-0.53,1.15-0.11,1.56
	c0.57,0.57,1.5,0.2,1.98-0.57s0.73-2.38,0.66-3.24s-0.33-1.74-1.17-1.74H27.98z"/>
</svg>
