<?xml version="1.0" encoding="utf-8"?>
<!-- Generator: Adobe Illustrator 26.3.1, SVG Export Plug-In . SVG Version: 6.00 Build 0)  -->
<svg version="1.1" id="Layer_2_00000008145669122964337180000006439999435381536927_"
	 xmlns="http://www.w3.org/2000/svg" xmlns:xlink="http://www.w3.org/1999/xlink" x="0px" y="0px" viewBox="0 0 128 128"
	 style="enable-background:new 0 0 128 128;" xml:space="preserve">
<path style="fill:#5E6367;" d="M46.1,52.5c0,0,2.5,6.5,6.8,12.6c4.8,6.7,10.8,12.4,14.6,10.9s0.2-8.5-1.5-13.8
	c-2.4-7.4-0.9-9.8-0.9-9.8L46.1,52.5z"/>
<path style="fill:#464C4F;" d="M91.7,84.2L84.9,90L83,91.3c0,0-5.1,0.2-11.3-0.9c-6.2-1.1-9-1.8-10.2-1.7c-1.1,0.1-1.4,1.5-1,3.3
	s0.5,5.6,4.1,9.6c3.7,4,6.4,5.1,6.4,5.1s-0.9,5.1,1,9.3c1.9,4.1,5.5,8.3,6.9,8.2c1.4-0.2,1.6-1.8,2.5-4.4c0.9-2.5,4.1-10.9,4.7-13
	s2-5.5,2-5.5s23.2-6.2,27.3-31.8c4-25.6-13.1-38.9-13.1-42.8s4.5-11.5,6.9-14.3s5.1-6,2.9-7.5c-2.1-1.6-9.7,1.1-15.2,5.8
	s-6.7,5.9-8.7,5.7c-2-0.2-25.6-13.6-52.4-5.1C11.6,19,13.5,36.4,13.5,36.4s-3.2,2.2-3.9,5.9c-0.9,4.5-0.1,5.4-0.1,5.4l49.4,0.5
	l24.4,11.5l10,13.6L91.7,84.2z"/>
<path style="fill:#F4F0EF;" d="M27.9,33.8c0.7,0.2,1.6,0.7,3.5-0.4c1.9-1.1,6.3-2.7,9.2-3.6c3.3-0.9,8-4,7-8.1s-7-5-12.6-2.1
	C28.5,23,27.6,30,27.6,30L27.9,33.8z"/>
<path style="fill:#131314;" d="M26.3,30.2c-1.7,1.3-2,3.9-0.6,5.5s3.1,1.6,4.6,0.8c1.4-0.8,2.2-3.3,0.8-5.3
	C29.7,29.3,27.8,29.1,26.3,30.2z"/>
<path style="fill:#CDCDCE;" d="M64.3,91.9c-1.4,0.9,1.1,5.9,3.8,8.6c2.9,2.9,5.5,3.9,5.5,3.9s-0.7,4.3,0.5,8
	c0.9,2.7,2.6,5.2,3.6,5.3c1.7,0.3,4.2-8.3,5.6-11.9s3-8.8,1.3-10.8c-1.5-1.8-5.7-0.8-11-1.2C68.5,93.3,65.4,91.2,64.3,91.9z"/>
<path style="fill:#696F75;" d="M91.6,29.9c-0.5,1.6,1.8,3.3,4.8,4.2c5.5,1.8,11.2,0.9,11.2,0.9s-2.9-3.9-3.4-4.7
	c-0.5-0.8-1.8-3.2-1.8-3.2s-6,0.5-7.5,0.8C93.4,28.1,92.1,28.5,91.6,29.9z"/>
<path style="fill:#F4F0EF;" d="M88,74.8l0.1,8.9l-3.2,7c0,0,1.3,0.7,3.8-1.2c2.5-1.9,8.6-9,8.3-18s-4.7-12.8-2.9-14.4
	c1.8-1.5,4.4,0.8,5.6,1.5c1.1,0.8,2.8,2.7,4.3,1.2s1.5-7.4-2.8-10.4c-4.3-3-8.8-2.3-12.9-1.5s-7.4,1.8-11.8,0.4
	c-4.4-1.5-8.9-2.9-11.8-4.6S55.8,36,45,35.5s-18.1,5.7-18.1,5.7L12.8,48l3.9,3.6l26.9,0.3l19.6,2.7l13.4,5.9l8.9,7.9L88,74.8z"/>
<g>
	<path style="fill:#CDCDCE;" d="M84.9,90.7c-0.7-0.8,3.1-5.9,2.2-14.1c-0.7-6.4-7.6-14.9-21.5-19.6c-6.6-2.2-14.1-3.1-21.8-3.4
		c-5.5-0.2-21.6,0.9-28-1c-3.3-1-5.6-3.3-5.7-4.1l3.7-0.2c0,0,1.7,2.9,12.9,2.5c6.1-0.2,27.4-1.2,39.1,2.8
		c6.5,2.2,11.4,4.9,15.2,8.2c5.5,4.9,8.3,10.6,8.8,14.6C90.9,85.5,85.6,91.5,84.9,90.7z"/>
</g>
<path style="fill:#131314;" d="M9.3,46.7c-0.1,0.4,0.1,1.6,0.9,2.1c0.8,0.6,3.3,1.2,10.3-2.4c6.7-3.6,7.8-5.2,6.8-6.9
	c-0.8-1.4-3.5,0.6-4.9,1.4c-1.5,0.8-5.2,3-7.5,3.9S9.3,46.7,9.3,46.7z"/>
<path style="fill:#464C4F;" d="M67,36.5c0,0,3.6-1.3,10.2-7.4c8.8-8.1,11.1-15.5,8-17.7c-3.1-2.2-8.2-1.7-17,4
	c-8.3,5.4-15,14.5-15,14.5L67,36.5z"/>
<g>
	<path style="fill:#252829;" d="M63.8,38.2c-0.8-1.1,3.2-3.4,6.3-5.8c1.6-1.3,3.7-2.9,6-4.9c6.8-5.9,10.7-12.6,8.3-14.9
		c-2.4-2.3-8.8-0.2-16.4,4.8c-3,2-5.9,4.6-8.2,6.9c-2.5,2.6-4.3,5.9-5.8,7.4c-0.7,0.7-1.6,0.9-2,0.5c-1.6-1.5,1.5-5.5,4.6-9
		c2.4-2.7,5.8-5.8,9.5-8.2c8.9-5.8,16.3-7.4,20.1-4.7c1.2,0.9,1.7,2.3,1.8,3.9c0.2,4.2-3.5,9.8-10,15.5c-1.8,1.5-4.6,4.1-6,5.2
		C68,37.9,64.7,39.3,63.8,38.2z"/>
</g>
</svg>
