<?xml version="1.0" encoding="utf-8"?>
<!-- Generator: Adobe Illustrator 26.3.1, SVG Export Plug-In . SVG Version: 6.00 Build 0)  -->
<svg version="1.1" id="Layer_3" xmlns="http://www.w3.org/2000/svg" xmlns:xlink="http://www.w3.org/1999/xlink" x="0px" y="0px"
	 viewBox="0 0 128 128" style="enable-background:new 0 0 128 128;" xml:space="preserve">
<g>
	
		<radialGradient id="face_00000130626669306605421630000011602819627464383150_" cx="64" cy="2114" r="56.9597" gradientTransform="matrix(1 0 0 1 0 -2050)" gradientUnits="userSpaceOnUse">
		<stop  offset="0.5" style="stop-color:#FDE030"/>
		<stop  offset="0.92" style="stop-color:#F7C02B"/>
		<stop  offset="1" style="stop-color:#F4A223"/>
	</radialGradient>
	<path id="face" style="fill:url(#face_00000130626669306605421630000011602819627464383150_);" d="M64,119.9
		c-27.9,0-58-17.5-58-55.9S36.1,8.1,64,8.1c15.5,0,29.8,5.1,40.4,14.4C115.9,32.7,122,47.1,122,64s-6.1,31.2-17.6,41.4
		C93.8,114.7,79.4,119.9,64,119.9z"/>
	<path style="fill:#EB8F00;" d="M111.89,30.77C117.22,39.37,120,49.61,120,61c0,16.9-6.1,31.2-17.6,41.4
		c-10.6,9.3-25,14.5-40.4,14.5c-18.06,0-37.04-7.35-48.18-22.94C24.58,111.62,44.81,119.9,64,119.9c15.4,0,29.8-5.2,40.4-14.5
		C115.9,95.2,122,80.9,122,64C122,51.26,118.53,39.94,111.89,30.77z"/>
</g>
<path style="fill:#35220B;" d="M75.33,107.85c-7.46,0.35-15.18,0.35-22.64-0.01c-3.28-0.16-6.18-2.22-6.52-4.9
	c-0.34-2.67,2.21-4.95,5.74-4.81c7.95,0.32,16.21,0.33,24.17,0.01c3.54-0.14,6.09,2.14,5.76,4.81
	C81.51,105.63,78.6,107.69,75.33,107.85L75.33,107.85z"/>
<g>
	<g>
		
			<radialGradient id="SVGID_1_" cx="127.8124" cy="722.4426" r="28.7786" gradientTransform="matrix(0.9622 0.2724 -0.3028 1.0698 127.5788 -753.6657)" gradientUnits="userSpaceOnUse">
			<stop  offset="0.7195" style="stop-color:#FFFFFF"/>
			<stop  offset="0.9228" style="stop-color:#D9D9D9"/>
			<stop  offset="1" style="stop-color:#BDBDBD"/>
		</radialGradient>
		<path style="fill:url(#SVGID_1_);" d="M28.35,25.26c11.73-2,23.36,8.14,19.85,26.61S32.91,80.82,19.77,77.26
			c-11.06-3-15.24-14.14-13.35-26.25C7.94,38.61,16.62,27.27,28.35,25.26z"/>
		<path style="fill:#422B0D;" d="M22.83,38.43c3.58-0.49,6.53,0.97,8.01,4.95c0.67,1.8,1.45,6.22-1,11.03s-6.21,7.59-10.35,6.95
			c-4.09-0.64-6.93-4.46-6.54-10.59C13.35,44.62,17.4,39.17,22.83,38.43z"/>
		<path style="fill:#896024;" d="M21.29,42.5c-0.77-0.77-2.98-0.42-4.73,1.96c-1.59,2.17-1.42,5.75,0.55,5.96
			c1.89,0.21,3.01-2.12,3.77-3.43C21.97,45.13,22.7,43.91,21.29,42.5z"/>
	</g>
	<g>
		
			<radialGradient id="SVGID_00000170275989874003819410000011412854589970264723_" cx="-1585.9727" cy="1160.2513" r="28.7786" gradientTransform="matrix(-0.9622 0.2724 0.3028 1.0698 -1781.1564 -755.2531)" gradientUnits="userSpaceOnUse">
			<stop  offset="0.7195" style="stop-color:#FFFFFF"/>
			<stop  offset="0.9228" style="stop-color:#D9D9D9"/>
			<stop  offset="1" style="stop-color:#BDBDBD"/>
		</radialGradient>
		<path style="fill:url(#SVGID_00000170275989874003819410000011412854589970264723_);" d="M121.58,51.01
			c1.89,12.12-2.29,23.25-13.35,26.25c-13.14,3.56-24.92-6.91-28.43-25.39s8.12-28.61,19.85-26.61S120.06,38.61,121.58,51.01z"/>
		<path style="fill:#422B0D;" d="M115.05,50.77c0.39,6.13-2.45,9.96-6.54,10.59c-4.14,0.64-7.9-2.13-10.35-6.95s-1.67-9.24-1-11.03
			c1.48-3.98,4.43-5.44,8.01-4.95C110.6,39.17,114.65,44.62,115.05,50.77z"/>
		<path style="fill:#896024;" d="M104.4,46.45c0.13,1.78-0.24,3.98-2.11,4.19c-2.2,0.24-3.69-2.79-3.19-5.41
			c0.55-2.89,2.62-3.94,3.82-3.67C105.08,42.04,104.26,44.56,104.4,46.45z"/>
	</g>
</g>
</svg>
