<?xml version="1.0" encoding="utf-8"?>
<!-- Generator: Adobe Illustrator 26.3.1, SVG Export Plug-In . SVG Version: 6.00 Build 0)  -->
<svg version="1.1" id="Layer_1" xmlns="http://www.w3.org/2000/svg" xmlns:xlink="http://www.w3.org/1999/xlink" x="0px" y="0px"
	 viewBox="0 0 128 128" style="enable-background:new 0 0 128 128;" xml:space="preserve">
<path style="fill:#E5322E;" d="M49.72,41.02l-0.5-13.4c0-0.6,0.3-1.1,0.7-1.2s1,0.2,1.3,0.7l6.2,11.2l-2.1,5.6L49.72,41.02
	L49.72,41.02L49.72,41.02z"/>
<path style="fill:#E5322E;" d="M93.42,42.12l19.7-13.4c1.2-1,1.7,0,1.2,0.7c-3.5,4.8-9.4,12.7-9.2,12.9c0.2,0.3,4.6-0.7,7-1.3
	c0.5,0,0.8,0.5,0.4,0.8l-11.4,11.3l-7.6-11H93.42z"/>
<path style="fill:#E5322E;" d="M83.62,37.22l6.4-7.2c0.4-0.5,1.3-0.2,1.2,0.4l-2,12.2l-4.2,0.3L83.62,37.22L83.62,37.22z"/>
<path style="fill:#E3E5E5;" d="M23.22,67.42l-0.6-10.7l2.2-5.6c0,0,2.4-3.7,5.9-6.3c3.5-2.5,16-4.3,16-4.3l8.4,3.2l2.7-6.7l6.5-5.2
	c0,0,3.7-1.4,7.1-1.2s8.3,2.9,8.3,2.9l3.7,5.3l1.5,3.7l9.5,0.9l4.3,6.1l-0.2,7.9l9.5,12.8l-7.6,13.2l-24.5,21.2l-23,2.4l-12.7-9.4
	l-11.4-16.2l-5.6-14.1h-0.1C23.12,67.32,23.22,67.42,23.22,67.42z"/>
<path style="fill:#8FC5D8;" d="M25.52,78.52c0,0-4.4-6.4-4.6-13.2c-0.2-7.7,3.4-14.3,4.1-14.2c0.3,0-3,6,0.2,18.7
	c2.5,9.7,10.2,13.5,10.2,13.5s-2.5,14.8,16.7,20.1c22.6,6.3,31.8-9.1,32.6-13c0.6-2.3,0-4.4,3.3-5c5.4-1,9.5-1.3,12.5-9.6
	c4.3-12-6.6-16.5-6.6-16.5s3.3-5.3,0-10.9s-9.5-3.4-10.2-3.1s-1.1-0.2-1-1s1-5.6-4.2-9.4s-8.7-3.5-8.6-4.1s6.8,0,10.6,2.8
	c4.5,3.2,5.1,7.9,5.1,7.9s8.8-2.9,13.6,5.2c4,6.8,0.8,10.6,0.8,10.6s13,0.7,11.9,17.6c-1,14.3-15.8,16.6-15.8,16.6
	s2.8,12.3-7.8,17.2c-14.2,6.5-23.6-1.8-23.6-1.8s-9.6,9.4-24.1,2.8c-13.1-6.1-8.9-18.9-8.9-18.9s-5,1.1-7.5-3.5s1.1-8.8,1.1-8.8
	L25.52,78.52C25.52,78.52,25.52,78.52,25.52,78.52z"/>
<path style="fill:#9FD4E2;" d="M29.52,45.92c0.2,0.3,8.5-3.6,14.6-3.1c7.5,0.5,10.6,3.5,11.6,3.2c0.7-0.2,1-5.2,4.6-9.1
	c3.4-3.9,6.8-4.9,6.8-5.6s-5.9,1.2-8.6,4.1c-3.1,3.2-3.9,6.8-4.3,6.9s-4.4-3.2-10.4-2.6c-6,0.6-14.5,5.9-14.2,6.3l0,0
	C29.62,46.02,29.52,45.92,29.52,45.92z"/>
<path style="fill:#E3E5E5;" d="M20.92,111.02l3.9,0.9l7.6,0.8l8.2-8.2v-2.8c0-1.9-1.8-5-4.9-5.3c-3-0.4-4.8,1.2-4.8,1.2
	s-7.6-2.2-10.9,3.6c-3.3,5.9,0.9,9.7,0.9,9.7S20.92,111.02,20.92,111.02z"/>
<path style="fill:#8FC5D8;" d="M22.92,112.52c-1.3-0.5-2.1-1.6-2.1-1.6s1.4,0.7,3.2,0.6s2.6-1.2,2.6-1.2s2.7,2.5,5.7,0.7
	c3-1.8,1.8-4.7,1.8-4.7s2.3,0.4,4-0.6c2.6-1.7,2.3-4.3,2.3-4.3s1.2,2.7-0.5,5.3c-1.2,2-3.1,2.1-3.1,2.1s0.8,4-3.2,5.9s-7-2-7-2
	S24.72,113.32,22.92,112.52h0.1C23.02,112.52,22.92,112.52,22.92,112.52z"/>
<path style="fill:#E5322E;" d="M49.92,79.02l-7.5,15.4c-0.3,0.7,0.5,1.5,1.2,1.1l18.3-9.5l-9.5-8.5l-2.4,1.5H49.92z"/>
<path style="fill:#9FD4E2;" d="M65.72,46.22c-0.7-1.7,4.6-5.1,10.2-2s6.2,8.6,4.6,9c-1.7,0.2-2-3.1-7-5.3
	C68.52,45.92,66.32,47.72,65.72,46.22C65.72,46.22,65.72,46.22,65.72,46.22z"/>
<path style="fill:#9FD4E2;" d="M59.52,50.92c0,1.1-3.5,1.1-5.4,3s-3.1,5.1-4.1,5.2c-1.5,0-2.1-5.2,1.2-8.2s8-2.5,8.2,0H59.52z"/>
<path style="fill:#9FD4E2;" d="M70.62,76.42c0,1.9,5.6,2.2,9.8-1.6c4.3-4,3.6-11.1,1.8-10.9c-1.3,0-1.4,4.6-4.8,7.6
	c-4.1,3.5-6.9,3.7-6.9,5L70.62,76.42z"/>
<path style="fill:#8FC5D8;" d="M44.02,71.32c-0.8,0.5-0.5,5.4,3,8c2.4,1.7,5.4,1.2,5.4,1.2s1.2,6,6.6,8.1c7.4,2.8,14.8-2.8,12.7-4.9
	c-1.1-1.1-5.1,2.3-9.9-0.2c-5.1-2.6-4.3-7.4-5.3-8.1c-0.9-0.7-5.2,1.5-8,0c-3.5-2.1-3.6-4.5-4.5-4l0,0v-0.2l0,0V71.32z"/>
<path style="fill:#9FD4E2;" d="M37.52,54.22c-1.6-0.8-7,3.9-6.1,11.9s5.3,11.7,6.6,10.8s-2.2-5.9-1.8-12.6
	C36.62,57.52,39.02,55.02,37.52,54.22L37.52,54.22L37.52,54.22z"/>
<path style="fill:#FFD629;" d="M32.82,28.62c0.1-0.7-1.1-4.7-0.5-5.1c0.8-0.7,4.2,1.6,4.7,1.4c0.5,0,3.3-2.9,4.2-2.5
	s0.2,4.4,0.3,4.6s3.7,2,3.6,2.7s-3.9,2.1-4,2.3s-0.8,4.3-1.7,4.6s-3.6-3.1-4-3.1s-4.4,0.2-4.8-0.5c-0.3-0.9,2-3.9,2.1-4.4
	C32.72,28.62,32.82,28.62,32.82,28.62z"/>
<path style="fill:#FFD629;" d="M12.32,89.82c-0.3,0-3.7-2.8-4.6-2.5s0.4,4.7,0.3,5.1c-0.1,0.5-4.4,3-4.1,4.1c0.4,0.8,5,1.2,5.2,1.4
	c0.1,0.3,1.6,4.6,2.3,4.6c1,0,2.7-4.4,3.1-4.5s4.8,0,5.1-0.6s-2.9-3.9-2.9-4.3c-0.2-0.4,1.4-4.6,0.6-5.1c-0.7-0.5-4.5,1.6-5.1,1.7
	l0,0L12.32,89.82z"/>
<path style="fill:#2F7889;" d="M13.52,84.62c-4.4-2.1-3.3-5.1-2.5-6.5c5.8-9.1,45.2-16.9,53.3-18.2c41.9-7.1,52.2-3,55.1-1.7
	c2.2,1.1,3.2,2.3,3.3,4.9s-1.7,4.4-4.4,5.9c-2.7,1.5-6.4,2.7-6.4,2.7s0-1.7-0.5-3.9c0,0,9.6-3.2,7.8-5.3c-4.4-3.9-26-2.5-53.6,2.3
	c-27.1,4.8-49.4,11.6-51.4,15c-0.5,0.8,0.6,1.7,1.7,2.1c3.5,1.5,7.4,1,7.4,1c-0.2,1.9,0.4,3.7,0.4,3.7s-5.5,0.4-10.4-2l0,0l0.1-0.1
	C13.42,84.52,13.52,84.62,13.52,84.62z"/>
<path style="fill:#2F7889;" d="M106.42,115.22c-5.6,0-13.9-6.5-15.7-8c0,0,0.8-0.6,1.4-1.1s1.3-1.3,1.3-1.3
	c6.8,5.8,13.1,8.1,14.5,7.2c0.9-2.9-13-22.2-43-46.6c-30.2-24.6-45-26.8-47.9-23.9c-2.6,2.6,1.9,9.4,4.5,12.6l1.1,1.3
	c0,0-0.3,1-0.6,1.9c-0.2,0.9-0.6,2.5-0.6,2.5l-2.8-3.4c-1-1.3-9.8-11.7-4.3-17.3c6.8-6.8,26.7,0.4,53.2,22.5
	c4.5,3.8,8.9,7.6,13,11.4c17.7,16.4,30.5,31.8,30.5,38.1c0,0,0.5,1.6-1.3,3C108.82,114.92,107.72,115.22,106.42,115.22
	L106.42,115.22L106.42,115.22z"/>
<path style="fill:#E5322E;" d="M61.92,101.62c0,0.4,3.6,21.1,3.7,21.7s1.4,1.1,1.9,0s5.6-25.1,5.8-26s-0.5-1.3-1.3-1.1
	s-2.9,1.4-4.9,2.1c-2.2,0.9-5.2,1.3-5.3,1.6v1.8l0,0L61.92,101.62z"/>
<path style="fill:#2F7889;" d="M84.12,29.82c0,0-0.6,1.2-1.9,0.7s-0.8-1.9-0.8-1.9l10.2-24.1c0,0,0.3-1.1,2.1,0
	c1.7,1,1.1,2.2,1.1,2.2l-10.7,23.2l0,0L84.12,29.82L84.12,29.82z"/>
<path style="fill:#2F7889;" d="M97.32,35.12c0,0-0.9,1.3-2.2,0.2s-0.2-2.2-0.2-2.2l11.8-14.6c0,0,0.5-0.6,1.7,0.2s0.5,1.6,0.5,1.6
	l-11.6,14.7l0,0C97.32,35.02,97.32,35.12,97.32,35.12z"/>
<path style="fill:#2F7889;" d="M44.32,119.52c0,0-0.8,1.3-2.1,0.5c-1.3-0.7-0.6-1.9-0.6-1.9s11.9-20.7,12-21s0.9-1.2,2-0.5
	c1.1,0.8,0.2,2.3,0.2,2.3l-11.4,20.6l0,0L44.32,119.52z"/>
<path style="fill:#2F7889;" d="M122.12,92.72c-1.3-0.5-12.4-4.6-12.4-4.6s-0.7-0.2-0.8-0.6c-0.2-1,0.7-1.5,0.7-1.5l3.3-2.5l-9.8-3
	c0,0-1.3-0.4-0.8-1.7c0.4-1.4,1.5-0.9,1.5-0.9s11.8,3.6,12.3,3.7c0.6,0.2,1.1,0.4,1.1,1s-0.2,0.6-0.7,1.1s-3.3,2.8-3.3,2.8
	s7.2,2.4,9.6,3c2.4,0.7,0.9,3.6-0.4,3.1h-0.3L122.12,92.72z"/>
<path style="fill:#2F7889;" d="M12.72,67.12l-8.4-3.6c0,0-0.5-0.6-0.2-1.4s1.1-1.2,1.5-1c0.3,0,6.2,2.4,6.2,2.4l-0.5-4.2
	c0,0,0-0.5,0.3-0.8c0.4-0.5,1-0.2,1.6,0l13,5.9c0,0,0.7,0.4,0,1.5c-0.5,0.9-1.2,0.5-1.2,0.5l-10.3-4.6l0.3,4.3c0,0.5,0,1-0.5,1.3
	S13.32,67.42,12.72,67.12l0.1,0L12.72,67.12z"/>
<path style="fill:none;stroke:#2F7889;stroke-width:2;stroke-linecap:round;stroke-miterlimit:10;" d="M67.42,17.42
	c0.2-1.8,1.9-2.2,2.8-1.8c1.7,0.6,1.9,2.4,1.4,3.7c-1,2.2-3.4,2.5-5.4,1.6c-2.4-1.2-3.2-3.9-2.4-6.2c1.1-3.3,5-4.6,8.4-3.1
	s5.5,5.7,3.7,9.5c-1.7,4.3-7,6.5-11.6,4.4c-4.8-2.2-7.5-8.1-5.3-12.7"/>
</svg>
